<mxfile host="Electron" agent="Mozilla/5.0 (X11; Linux x86_64) AppleWebKit/537.36 (KHTML, like Gecko) draw.io/24.7.8 Chrome/128.0.6613.36 Electron/32.0.1 Safari/537.36" version="24.7.8">
  <diagram name="Page-1" id="p695oZ7ue9uJPE4E8-2V">
    <mxGraphModel dx="547" dy="335" grid="1" gridSize="10" guides="1" tooltips="1" connect="1" arrows="1" fold="1" page="1" pageScale="1" pageWidth="850" pageHeight="1100" math="0" shadow="0">
      <root>
        <mxCell id="0" />
        <mxCell id="1" parent="0" />
        <mxCell id="DIi2TAScKpZwayUGl67N-1" value="" style="endArrow=classic;html=1;rounded=0;strokeColor=#000000;shape=flexArrow;fillColor=#FFD966;" edge="1" parent="1">
          <mxGeometry width="50" height="50" relative="1" as="geometry">
            <mxPoint x="80" y="200" as="sourcePoint" />
            <mxPoint x="840" y="200" as="targetPoint" />
          </mxGeometry>
        </mxCell>
        <mxCell id="DIi2TAScKpZwayUGl67N-22" value="" style="rounded=0;whiteSpace=wrap;html=1;fillColor=default;movable=1;resizable=1;rotatable=1;deletable=1;editable=1;locked=0;connectable=1;" vertex="1" parent="1">
          <mxGeometry x="80" y="220" width="760" height="150" as="geometry" />
        </mxCell>
        <mxCell id="DIi2TAScKpZwayUGl67N-23" value="Basic" style="text;html=1;align=center;verticalAlign=middle;whiteSpace=wrap;rounded=0;" vertex="1" parent="1">
          <mxGeometry y="220" width="80" height="150" as="geometry" />
        </mxCell>
        <mxCell id="DIi2TAScKpZwayUGl67N-328" style="edgeStyle=orthogonalEdgeStyle;rounded=0;orthogonalLoop=1;jettySize=auto;html=1;exitX=1;exitY=1;exitDx=0;exitDy=0;entryX=0.5;entryY=0;entryDx=0;entryDy=0;strokeColor=#00CCCC;" edge="1" parent="1" source="DIi2TAScKpZwayUGl67N-24">
          <mxGeometry relative="1" as="geometry">
            <mxPoint x="440" y="360" as="targetPoint" />
          </mxGeometry>
        </mxCell>
        <mxCell id="DIi2TAScKpZwayUGl67N-24" value="" style="rounded=0;whiteSpace=wrap;html=1;fillColor=#f8cecc;strokeColor=#b85450;" vertex="1" parent="1">
          <mxGeometry x="280" y="260" width="160" height="20" as="geometry" />
        </mxCell>
        <mxCell id="DIi2TAScKpZwayUGl67N-77" style="edgeStyle=orthogonalEdgeStyle;rounded=0;orthogonalLoop=1;jettySize=auto;html=1;entryX=0;entryY=0;entryDx=0;entryDy=0;strokeColor=#000000;" edge="1" parent="1" source="DIi2TAScKpZwayUGl67N-25" target="DIi2TAScKpZwayUGl67N-24">
          <mxGeometry relative="1" as="geometry">
            <Array as="points">
              <mxPoint x="200" y="250" />
              <mxPoint x="280" y="250" />
            </Array>
          </mxGeometry>
        </mxCell>
        <mxCell id="DIi2TAScKpZwayUGl67N-25" value="" style="rounded=0;whiteSpace=wrap;html=1;fillColor=#d5e8d4;strokeColor=#82b366;" vertex="1" parent="1">
          <mxGeometry x="120" y="220" width="160" height="20" as="geometry" />
        </mxCell>
        <mxCell id="DIi2TAScKpZwayUGl67N-80" style="edgeStyle=orthogonalEdgeStyle;rounded=0;orthogonalLoop=1;jettySize=auto;html=1;entryX=1;entryY=0;entryDx=0;entryDy=0;strokeColor=#000000;" edge="1" parent="1" source="DIi2TAScKpZwayUGl67N-32" target="DIi2TAScKpZwayUGl67N-24">
          <mxGeometry relative="1" as="geometry">
            <mxPoint x="400" y="260" as="targetPoint" />
            <Array as="points">
              <mxPoint x="360" y="250" />
              <mxPoint x="440" y="250" />
            </Array>
          </mxGeometry>
        </mxCell>
        <mxCell id="DIi2TAScKpZwayUGl67N-32" value="" style="rounded=0;whiteSpace=wrap;html=1;fillColor=#d5e8d4;strokeColor=#82b366;" vertex="1" parent="1">
          <mxGeometry x="280" y="220" width="160" height="20" as="geometry" />
        </mxCell>
        <mxCell id="DIi2TAScKpZwayUGl67N-50" value="" style="rounded=0;whiteSpace=wrap;html=1;fillColor=default;movable=1;resizable=1;rotatable=1;deletable=1;editable=1;locked=0;connectable=1;" vertex="1" parent="1">
          <mxGeometry x="80" y="390" width="760" height="230" as="geometry" />
        </mxCell>
        <mxCell id="DIi2TAScKpZwayUGl67N-51" value="&lt;h1 dir=&quot;auto&quot; class=&quot;heading-element&quot; tabindex=&quot;-1&quot;&gt;&lt;span style=&quot;font-weight: normal;&quot;&gt;&lt;font style=&quot;font-size: 12px;&quot;&gt;Temporal Event Stereo&amp;nbsp;&lt;/font&gt;&lt;/span&gt;&lt;/h1&gt;&lt;div&gt;&lt;span style=&quot;font-weight: normal;&quot;&gt;&lt;font style=&quot;font-size: 12px;&quot;&gt;Paper&lt;/font&gt;&lt;/span&gt;&lt;/div&gt;" style="text;html=1;align=center;verticalAlign=middle;whiteSpace=wrap;rounded=0;" vertex="1" parent="1">
          <mxGeometry y="390" width="80" height="230" as="geometry" />
        </mxCell>
        <mxCell id="DIi2TAScKpZwayUGl67N-52" value="" style="rounded=0;whiteSpace=wrap;html=1;fillColor=#f8cecc;strokeColor=#b85450;" vertex="1" parent="1">
          <mxGeometry x="200" y="430" width="160" height="20" as="geometry" />
        </mxCell>
        <mxCell id="DIi2TAScKpZwayUGl67N-369" style="edgeStyle=orthogonalEdgeStyle;rounded=0;orthogonalLoop=1;jettySize=auto;html=1;entryX=0;entryY=0;entryDx=0;entryDy=0;exitX=0.5;exitY=1;exitDx=0;exitDy=0;strokeColor=#000000;" edge="1" parent="1" source="DIi2TAScKpZwayUGl67N-54" target="DIi2TAScKpZwayUGl67N-52">
          <mxGeometry relative="1" as="geometry">
            <Array as="points">
              <mxPoint x="160" y="420" />
              <mxPoint x="200" y="420" />
            </Array>
          </mxGeometry>
        </mxCell>
        <mxCell id="DIi2TAScKpZwayUGl67N-54" value="" style="rounded=0;whiteSpace=wrap;html=1;fillColor=#d5e8d4;strokeColor=#82b366;" vertex="1" parent="1">
          <mxGeometry x="120" y="390" width="80" height="20" as="geometry" />
        </mxCell>
        <mxCell id="DIi2TAScKpZwayUGl67N-57" style="edgeStyle=orthogonalEdgeStyle;rounded=0;orthogonalLoop=1;jettySize=auto;html=1;entryX=0;entryY=0;entryDx=0;entryDy=0;strokeColor=#000000;exitX=0.5;exitY=1;exitDx=0;exitDy=0;" edge="1" parent="1" source="DIi2TAScKpZwayUGl67N-58" target="DIi2TAScKpZwayUGl67N-59">
          <mxGeometry relative="1" as="geometry">
            <Array as="points">
              <mxPoint x="320" y="420" />
              <mxPoint x="360" y="420" />
            </Array>
          </mxGeometry>
        </mxCell>
        <mxCell id="DIi2TAScKpZwayUGl67N-58" value="" style="rounded=0;whiteSpace=wrap;html=1;fillColor=#d5e8d4;strokeColor=#82b366;" vertex="1" parent="1">
          <mxGeometry x="280" y="390" width="80" height="20" as="geometry" />
        </mxCell>
        <mxCell id="DIi2TAScKpZwayUGl67N-335" style="edgeStyle=orthogonalEdgeStyle;rounded=0;orthogonalLoop=1;jettySize=auto;html=1;exitX=0;exitY=1;exitDx=0;exitDy=0;entryX=0.5;entryY=0;entryDx=0;entryDy=0;strokeColor=#00CCCC;" edge="1" parent="1" source="DIi2TAScKpZwayUGl67N-59">
          <mxGeometry relative="1" as="geometry">
            <mxPoint x="360" y="610" as="targetPoint" />
            <Array as="points">
              <mxPoint x="360" y="610" />
            </Array>
          </mxGeometry>
        </mxCell>
        <mxCell id="DIi2TAScKpZwayUGl67N-337" style="edgeStyle=orthogonalEdgeStyle;rounded=0;orthogonalLoop=1;jettySize=auto;html=1;exitX=1;exitY=1;exitDx=0;exitDy=0;entryX=0.5;entryY=0;entryDx=0;entryDy=0;strokeColor=#00CCCC;" edge="1" parent="1" source="DIi2TAScKpZwayUGl67N-59">
          <mxGeometry relative="1" as="geometry">
            <mxPoint x="440" y="610" as="targetPoint" />
          </mxGeometry>
        </mxCell>
        <mxCell id="DIi2TAScKpZwayUGl67N-59" value="" style="rounded=0;whiteSpace=wrap;html=1;fillColor=#f8cecc;strokeColor=#b85450;" vertex="1" parent="1">
          <mxGeometry x="360" y="430" width="80" height="20" as="geometry" />
        </mxCell>
        <mxCell id="DIi2TAScKpZwayUGl67N-60" style="edgeStyle=orthogonalEdgeStyle;rounded=0;orthogonalLoop=1;jettySize=auto;html=1;entryX=0;entryY=0;entryDx=0;entryDy=0;strokeColor=#000000;exitX=0.5;exitY=1;exitDx=0;exitDy=0;" edge="1" parent="1" source="DIi2TAScKpZwayUGl67N-61" target="DIi2TAScKpZwayUGl67N-66">
          <mxGeometry relative="1" as="geometry">
            <Array as="points">
              <mxPoint x="400" y="420" />
              <mxPoint x="440" y="420" />
            </Array>
          </mxGeometry>
        </mxCell>
        <mxCell id="DIi2TAScKpZwayUGl67N-61" value="" style="rounded=0;whiteSpace=wrap;html=1;fillColor=#d5e8d4;strokeColor=#82b366;" vertex="1" parent="1">
          <mxGeometry x="360" y="390" width="80" height="20" as="geometry" />
        </mxCell>
        <mxCell id="DIi2TAScKpZwayUGl67N-62" style="edgeStyle=orthogonalEdgeStyle;rounded=0;orthogonalLoop=1;jettySize=auto;html=1;entryX=0;entryY=0;entryDx=0;entryDy=0;strokeColor=#000000;exitX=0.5;exitY=1;exitDx=0;exitDy=0;" edge="1" parent="1" source="DIi2TAScKpZwayUGl67N-63" target="DIi2TAScKpZwayUGl67N-67">
          <mxGeometry relative="1" as="geometry">
            <Array as="points">
              <mxPoint x="480" y="420" />
              <mxPoint x="520" y="420" />
            </Array>
          </mxGeometry>
        </mxCell>
        <mxCell id="DIi2TAScKpZwayUGl67N-63" value="" style="rounded=0;whiteSpace=wrap;html=1;fillColor=#d5e8d4;strokeColor=#82b366;" vertex="1" parent="1">
          <mxGeometry x="440" y="390" width="80" height="20" as="geometry" />
        </mxCell>
        <mxCell id="DIi2TAScKpZwayUGl67N-64" style="edgeStyle=orthogonalEdgeStyle;rounded=0;orthogonalLoop=1;jettySize=auto;html=1;entryX=0;entryY=0;entryDx=0;entryDy=0;strokeColor=#000000;exitX=0.5;exitY=1;exitDx=0;exitDy=0;" edge="1" parent="1" source="DIi2TAScKpZwayUGl67N-65" target="DIi2TAScKpZwayUGl67N-68">
          <mxGeometry relative="1" as="geometry">
            <Array as="points">
              <mxPoint x="560" y="420" />
              <mxPoint x="600" y="420" />
            </Array>
          </mxGeometry>
        </mxCell>
        <mxCell id="DIi2TAScKpZwayUGl67N-65" value="" style="rounded=0;whiteSpace=wrap;html=1;fillColor=#d5e8d4;strokeColor=#82b366;" vertex="1" parent="1">
          <mxGeometry x="520" y="390" width="80" height="20" as="geometry" />
        </mxCell>
        <mxCell id="DIi2TAScKpZwayUGl67N-339" style="edgeStyle=orthogonalEdgeStyle;rounded=0;orthogonalLoop=1;jettySize=auto;html=1;exitX=1;exitY=1;exitDx=0;exitDy=0;entryX=0.5;entryY=0;entryDx=0;entryDy=0;strokeColor=#00CCCC;" edge="1" parent="1" source="DIi2TAScKpZwayUGl67N-66">
          <mxGeometry relative="1" as="geometry">
            <mxPoint x="520" y="610" as="targetPoint" />
          </mxGeometry>
        </mxCell>
        <mxCell id="DIi2TAScKpZwayUGl67N-66" value="" style="rounded=0;whiteSpace=wrap;html=1;fillColor=#f8cecc;strokeColor=#b85450;" vertex="1" parent="1">
          <mxGeometry x="440" y="430" width="80" height="20" as="geometry" />
        </mxCell>
        <mxCell id="DIi2TAScKpZwayUGl67N-341" style="edgeStyle=orthogonalEdgeStyle;rounded=0;orthogonalLoop=1;jettySize=auto;html=1;exitX=1;exitY=1;exitDx=0;exitDy=0;entryX=0.5;entryY=0;entryDx=0;entryDy=0;strokeColor=#00CCCC;" edge="1" parent="1" source="DIi2TAScKpZwayUGl67N-67">
          <mxGeometry relative="1" as="geometry">
            <mxPoint x="600" y="610" as="targetPoint" />
          </mxGeometry>
        </mxCell>
        <mxCell id="DIi2TAScKpZwayUGl67N-67" value="" style="rounded=0;whiteSpace=wrap;html=1;fillColor=#f8cecc;strokeColor=#b85450;" vertex="1" parent="1">
          <mxGeometry x="520" y="430" width="80" height="20" as="geometry" />
        </mxCell>
        <mxCell id="DIi2TAScKpZwayUGl67N-344" style="edgeStyle=orthogonalEdgeStyle;rounded=0;orthogonalLoop=1;jettySize=auto;html=1;exitX=1;exitY=1;exitDx=0;exitDy=0;entryX=0.5;entryY=0;entryDx=0;entryDy=0;strokeColor=#00CCCC;" edge="1" parent="1" source="DIi2TAScKpZwayUGl67N-68">
          <mxGeometry relative="1" as="geometry">
            <mxPoint x="680" y="610" as="targetPoint" />
          </mxGeometry>
        </mxCell>
        <mxCell id="DIi2TAScKpZwayUGl67N-68" value="" style="rounded=0;whiteSpace=wrap;html=1;fillColor=#f8cecc;strokeColor=#b85450;" vertex="1" parent="1">
          <mxGeometry x="600" y="430" width="80" height="20" as="geometry" />
        </mxCell>
        <mxCell id="DIi2TAScKpZwayUGl67N-100" style="edgeStyle=orthogonalEdgeStyle;rounded=0;orthogonalLoop=1;jettySize=auto;html=1;exitX=0.5;exitY=1;exitDx=0;exitDy=0;entryX=0;entryY=0;entryDx=0;entryDy=0;strokeColor=#000000;" edge="1" parent="1" source="DIi2TAScKpZwayUGl67N-97" target="DIi2TAScKpZwayUGl67N-99">
          <mxGeometry relative="1" as="geometry">
            <Array as="points">
              <mxPoint x="660" y="420" />
              <mxPoint x="700" y="420" />
            </Array>
          </mxGeometry>
        </mxCell>
        <mxCell id="DIi2TAScKpZwayUGl67N-97" value="" style="rounded=0;whiteSpace=wrap;html=1;fillColor=#d5e8d4;strokeColor=#82b366;" vertex="1" parent="1">
          <mxGeometry x="600" y="390" width="80" height="20" as="geometry" />
        </mxCell>
        <mxCell id="DIi2TAScKpZwayUGl67N-356" style="edgeStyle=orthogonalEdgeStyle;rounded=0;orthogonalLoop=1;jettySize=auto;html=1;exitX=1;exitY=1;exitDx=0;exitDy=0;entryX=0.5;entryY=0;entryDx=0;entryDy=0;strokeColor=#00CCCC;" edge="1" parent="1" source="DIi2TAScKpZwayUGl67N-99">
          <mxGeometry relative="1" as="geometry">
            <mxPoint x="760" y="610" as="targetPoint" />
          </mxGeometry>
        </mxCell>
        <mxCell id="DIi2TAScKpZwayUGl67N-99" value="" style="rounded=0;whiteSpace=wrap;html=1;fillColor=#f8cecc;strokeColor=#b85450;" vertex="1" parent="1">
          <mxGeometry x="680" y="430" width="80" height="20" as="geometry" />
        </mxCell>
        <mxCell id="DIi2TAScKpZwayUGl67N-102" value="" style="rounded=0;whiteSpace=wrap;html=1;fillColor=default;movable=1;resizable=1;rotatable=1;deletable=1;editable=1;locked=0;connectable=1;" vertex="1" parent="1">
          <mxGeometry x="80" y="640" width="760" height="190" as="geometry" />
        </mxCell>
        <mxCell id="DIi2TAScKpZwayUGl67N-103" value="&lt;h1 dir=&quot;auto&quot; class=&quot;heading-element&quot; tabindex=&quot;-1&quot;&gt;&lt;span style=&quot;font-size: 12px; font-weight: 400;&quot;&gt;Our Idea&lt;/span&gt;&lt;/h1&gt;&lt;div&gt;&lt;span style=&quot;font-size: 12px; font-weight: 400;&quot;&gt;Version 1&lt;/span&gt;&lt;/div&gt;" style="text;html=1;align=center;verticalAlign=middle;whiteSpace=wrap;rounded=0;" vertex="1" parent="1">
          <mxGeometry y="640" width="80" height="190" as="geometry" />
        </mxCell>
        <mxCell id="DIi2TAScKpZwayUGl67N-361" style="edgeStyle=orthogonalEdgeStyle;rounded=0;orthogonalLoop=1;jettySize=auto;html=1;exitX=1;exitY=1;exitDx=0;exitDy=0;entryX=0.5;entryY=0;entryDx=0;entryDy=0;strokeColor=#00CCCC;" edge="1" parent="1" source="DIi2TAScKpZwayUGl67N-105">
          <mxGeometry relative="1" as="geometry">
            <mxPoint x="280" y="820" as="targetPoint" />
          </mxGeometry>
        </mxCell>
        <mxCell id="DIi2TAScKpZwayUGl67N-105" value="" style="rounded=0;whiteSpace=wrap;html=1;fillColor=#f8cecc;strokeColor=#b85450;" vertex="1" parent="1">
          <mxGeometry x="200" y="720" width="80" height="20" as="geometry" />
        </mxCell>
        <mxCell id="DIi2TAScKpZwayUGl67N-366" style="edgeStyle=orthogonalEdgeStyle;rounded=0;orthogonalLoop=1;jettySize=auto;html=1;exitX=1;exitY=1;exitDx=0;exitDy=0;entryX=0.5;entryY=0;entryDx=0;entryDy=0;strokeColor=#00CCCC;" edge="1" parent="1" source="DIi2TAScKpZwayUGl67N-111">
          <mxGeometry relative="1" as="geometry">
            <mxPoint x="360" y="820" as="targetPoint" />
          </mxGeometry>
        </mxCell>
        <mxCell id="DIi2TAScKpZwayUGl67N-111" value="" style="rounded=0;whiteSpace=wrap;html=1;fillColor=#f8cecc;strokeColor=#b85450;" vertex="1" parent="1">
          <mxGeometry x="280" y="720" width="80" height="20" as="geometry" />
        </mxCell>
        <mxCell id="DIi2TAScKpZwayUGl67N-113" value="" style="rounded=0;whiteSpace=wrap;html=1;fillColor=#d5e8d4;strokeColor=#82b366;" vertex="1" parent="1">
          <mxGeometry x="120" y="640" width="80" height="20" as="geometry" />
        </mxCell>
        <mxCell id="DIi2TAScKpZwayUGl67N-115" value="" style="rounded=0;whiteSpace=wrap;html=1;fillColor=#d5e8d4;strokeColor=#82b366;" vertex="1" parent="1">
          <mxGeometry x="280" y="640" width="80" height="20" as="geometry" />
        </mxCell>
        <mxCell id="DIi2TAScKpZwayUGl67N-117" value="" style="rounded=0;whiteSpace=wrap;html=1;fillColor=#d5e8d4;strokeColor=#82b366;" vertex="1" parent="1">
          <mxGeometry x="360" y="640" width="80" height="20" as="geometry" />
        </mxCell>
        <mxCell id="DIi2TAScKpZwayUGl67N-390" style="edgeStyle=orthogonalEdgeStyle;rounded=0;orthogonalLoop=1;jettySize=auto;html=1;exitX=1;exitY=1;exitDx=0;exitDy=0;entryX=0.5;entryY=0;entryDx=0;entryDy=0;strokeColor=#00CCCC;" edge="1" parent="1" source="DIi2TAScKpZwayUGl67N-119">
          <mxGeometry relative="1" as="geometry">
            <mxPoint x="440" y="820" as="targetPoint" />
          </mxGeometry>
        </mxCell>
        <mxCell id="DIi2TAScKpZwayUGl67N-119" value="" style="rounded=0;whiteSpace=wrap;html=1;fillColor=#f8cecc;strokeColor=#b85450;" vertex="1" parent="1">
          <mxGeometry x="360" y="720" width="80" height="20" as="geometry" />
        </mxCell>
        <mxCell id="DIi2TAScKpZwayUGl67N-392" style="edgeStyle=orthogonalEdgeStyle;rounded=0;orthogonalLoop=1;jettySize=auto;html=1;exitX=1;exitY=1;exitDx=0;exitDy=0;entryX=0.5;entryY=0;entryDx=0;entryDy=0;strokeColor=#00CCCC;" edge="1" parent="1" source="DIi2TAScKpZwayUGl67N-121">
          <mxGeometry relative="1" as="geometry">
            <mxPoint x="520" y="820" as="targetPoint" />
          </mxGeometry>
        </mxCell>
        <mxCell id="DIi2TAScKpZwayUGl67N-121" value="" style="rounded=0;whiteSpace=wrap;html=1;fillColor=#f8cecc;strokeColor=#b85450;" vertex="1" parent="1">
          <mxGeometry x="440" y="720" width="80" height="20" as="geometry" />
        </mxCell>
        <mxCell id="DIi2TAScKpZwayUGl67N-394" style="edgeStyle=orthogonalEdgeStyle;rounded=0;orthogonalLoop=1;jettySize=auto;html=1;exitX=1;exitY=1;exitDx=0;exitDy=0;entryX=0.5;entryY=0;entryDx=0;entryDy=0;strokeColor=#00CCCC;" edge="1" parent="1" source="DIi2TAScKpZwayUGl67N-123">
          <mxGeometry relative="1" as="geometry">
            <mxPoint x="600" y="820" as="targetPoint" />
          </mxGeometry>
        </mxCell>
        <mxCell id="DIi2TAScKpZwayUGl67N-123" value="" style="rounded=0;whiteSpace=wrap;html=1;fillColor=#f8cecc;strokeColor=#b85450;" vertex="1" parent="1">
          <mxGeometry x="520" y="720" width="80" height="20" as="geometry" />
        </mxCell>
        <mxCell id="DIi2TAScKpZwayUGl67N-135" value="" style="rounded=0;whiteSpace=wrap;html=1;fillColor=#d5e8d4;strokeColor=#82b366;" vertex="1" parent="1">
          <mxGeometry x="440" y="640" width="80" height="20" as="geometry" />
        </mxCell>
        <mxCell id="DIi2TAScKpZwayUGl67N-396" style="edgeStyle=orthogonalEdgeStyle;rounded=0;orthogonalLoop=1;jettySize=auto;html=1;exitX=1;exitY=1;exitDx=0;exitDy=0;entryX=0.5;entryY=0;entryDx=0;entryDy=0;strokeColor=#00CCCC;" edge="1" parent="1" source="DIi2TAScKpZwayUGl67N-136">
          <mxGeometry relative="1" as="geometry">
            <mxPoint x="680" y="820" as="targetPoint" />
          </mxGeometry>
        </mxCell>
        <mxCell id="DIi2TAScKpZwayUGl67N-136" value="" style="rounded=0;whiteSpace=wrap;html=1;fillColor=#f8cecc;strokeColor=#b85450;" vertex="1" parent="1">
          <mxGeometry x="600" y="720" width="80" height="20" as="geometry" />
        </mxCell>
        <mxCell id="DIi2TAScKpZwayUGl67N-140" value="" style="rounded=0;whiteSpace=wrap;html=1;fillColor=#d5e8d4;strokeColor=#82b366;fontSize=5;" vertex="1" parent="1">
          <mxGeometry x="200" y="680" width="20" height="20" as="geometry" />
        </mxCell>
        <mxCell id="DIi2TAScKpZwayUGl67N-154" style="edgeStyle=orthogonalEdgeStyle;rounded=0;orthogonalLoop=1;jettySize=auto;html=1;exitX=0.5;exitY=1;exitDx=0;exitDy=0;entryX=0.5;entryY=0;entryDx=0;entryDy=0;strokeColor=#808080;" edge="1" parent="1" source="DIi2TAScKpZwayUGl67N-141" target="DIi2TAScKpZwayUGl67N-105">
          <mxGeometry relative="1" as="geometry">
            <Array as="points">
              <mxPoint x="230" y="710" />
              <mxPoint x="240" y="710" />
            </Array>
          </mxGeometry>
        </mxCell>
        <mxCell id="DIi2TAScKpZwayUGl67N-141" value="" style="rounded=0;whiteSpace=wrap;html=1;fillColor=#d5e8d4;strokeColor=#82b366;fontSize=5;" vertex="1" parent="1">
          <mxGeometry x="220" y="680" width="20" height="20" as="geometry" />
        </mxCell>
        <mxCell id="DIi2TAScKpZwayUGl67N-152" style="edgeStyle=orthogonalEdgeStyle;rounded=0;orthogonalLoop=1;jettySize=auto;html=1;entryX=0.75;entryY=0;entryDx=0;entryDy=0;exitX=0.5;exitY=1;exitDx=0;exitDy=0;strokeColor=#CCCCCC;" edge="1" parent="1" source="DIi2TAScKpZwayUGl67N-142" target="DIi2TAScKpZwayUGl67N-105">
          <mxGeometry relative="1" as="geometry">
            <Array as="points">
              <mxPoint x="250" y="710" />
              <mxPoint x="260" y="710" />
            </Array>
          </mxGeometry>
        </mxCell>
        <mxCell id="DIi2TAScKpZwayUGl67N-142" value="" style="rounded=0;whiteSpace=wrap;html=1;fillColor=#d5e8d4;strokeColor=#82b366;fontSize=5;" vertex="1" parent="1">
          <mxGeometry x="240" y="680" width="20" height="20" as="geometry" />
        </mxCell>
        <mxCell id="DIi2TAScKpZwayUGl67N-148" style="edgeStyle=orthogonalEdgeStyle;rounded=0;orthogonalLoop=1;jettySize=auto;html=1;entryX=0.25;entryY=0;entryDx=0;entryDy=0;strokeColor=#333333;exitX=0.5;exitY=1;exitDx=0;exitDy=0;" edge="1" parent="1" source="DIi2TAScKpZwayUGl67N-140" target="DIi2TAScKpZwayUGl67N-105">
          <mxGeometry relative="1" as="geometry">
            <Array as="points">
              <mxPoint x="210" y="710" />
              <mxPoint x="220" y="710" />
            </Array>
          </mxGeometry>
        </mxCell>
        <mxCell id="DIi2TAScKpZwayUGl67N-332" style="edgeStyle=orthogonalEdgeStyle;rounded=0;orthogonalLoop=1;jettySize=auto;html=1;exitX=1;exitY=1;exitDx=0;exitDy=0;entryX=0.5;entryY=0;entryDx=0;entryDy=0;strokeColor=#00CCCC;" edge="1" parent="1" source="DIi2TAScKpZwayUGl67N-150">
          <mxGeometry relative="1" as="geometry">
            <mxPoint x="600" y="360" as="targetPoint" />
          </mxGeometry>
        </mxCell>
        <mxCell id="DIi2TAScKpZwayUGl67N-150" value="" style="rounded=0;whiteSpace=wrap;html=1;fillColor=#f8cecc;strokeColor=#b85450;" vertex="1" parent="1">
          <mxGeometry x="440" y="260" width="160" height="20" as="geometry" />
        </mxCell>
        <mxCell id="DIi2TAScKpZwayUGl67N-155" value="" style="rounded=0;whiteSpace=wrap;html=1;fillColor=#d5e8d4;strokeColor=#82b366;" vertex="1" parent="1">
          <mxGeometry x="200" y="640" width="80" height="20" as="geometry" />
        </mxCell>
        <mxCell id="DIi2TAScKpZwayUGl67N-147" style="edgeStyle=orthogonalEdgeStyle;rounded=0;orthogonalLoop=1;jettySize=auto;html=1;entryX=0;entryY=0;entryDx=0;entryDy=0;strokeColor=#000000;" edge="1" parent="1" source="DIi2TAScKpZwayUGl67N-113" target="DIi2TAScKpZwayUGl67N-105">
          <mxGeometry relative="1" as="geometry">
            <Array as="points">
              <mxPoint x="160" y="670" />
              <mxPoint x="200" y="670" />
            </Array>
          </mxGeometry>
        </mxCell>
        <mxCell id="DIi2TAScKpZwayUGl67N-157" value="" style="rounded=0;whiteSpace=wrap;html=1;fillColor=#d5e8d4;strokeColor=#82b366;" vertex="1" parent="1">
          <mxGeometry x="520" y="640" width="80" height="20" as="geometry" />
        </mxCell>
        <mxCell id="DIi2TAScKpZwayUGl67N-177" style="edgeStyle=orthogonalEdgeStyle;rounded=0;orthogonalLoop=1;jettySize=auto;html=1;entryX=0.25;entryY=0;entryDx=0;entryDy=0;strokeColor=#4D4D4D;" edge="1" parent="1" source="DIi2TAScKpZwayUGl67N-162" target="DIi2TAScKpZwayUGl67N-111">
          <mxGeometry relative="1" as="geometry">
            <Array as="points">
              <mxPoint x="290" y="710" />
              <mxPoint x="300" y="710" />
            </Array>
          </mxGeometry>
        </mxCell>
        <mxCell id="DIi2TAScKpZwayUGl67N-162" value="" style="rounded=0;whiteSpace=wrap;html=1;fillColor=#d5e8d4;strokeColor=#82b366;fontSize=5;" vertex="1" parent="1">
          <mxGeometry x="280" y="680" width="20" height="20" as="geometry" />
        </mxCell>
        <mxCell id="DIi2TAScKpZwayUGl67N-178" style="edgeStyle=orthogonalEdgeStyle;rounded=0;orthogonalLoop=1;jettySize=auto;html=1;entryX=0.5;entryY=0;entryDx=0;entryDy=0;strokeColor=#808080;" edge="1" parent="1" source="DIi2TAScKpZwayUGl67N-163" target="DIi2TAScKpZwayUGl67N-111">
          <mxGeometry relative="1" as="geometry">
            <Array as="points">
              <mxPoint x="310" y="710" />
              <mxPoint x="320" y="710" />
            </Array>
          </mxGeometry>
        </mxCell>
        <mxCell id="DIi2TAScKpZwayUGl67N-163" value="" style="rounded=0;whiteSpace=wrap;html=1;fillColor=#d5e8d4;strokeColor=#82b366;fontSize=5;" vertex="1" parent="1">
          <mxGeometry x="300" y="680" width="20" height="20" as="geometry" />
        </mxCell>
        <mxCell id="DIi2TAScKpZwayUGl67N-179" style="edgeStyle=orthogonalEdgeStyle;rounded=0;orthogonalLoop=1;jettySize=auto;html=1;entryX=0.75;entryY=0;entryDx=0;entryDy=0;strokeColor=#CCCCCC;" edge="1" parent="1" source="DIi2TAScKpZwayUGl67N-164" target="DIi2TAScKpZwayUGl67N-111">
          <mxGeometry relative="1" as="geometry">
            <Array as="points">
              <mxPoint x="330" y="710" />
              <mxPoint x="340" y="710" />
            </Array>
          </mxGeometry>
        </mxCell>
        <mxCell id="DIi2TAScKpZwayUGl67N-164" value="" style="rounded=0;whiteSpace=wrap;html=1;fillColor=#d5e8d4;strokeColor=#82b366;fontSize=5;" vertex="1" parent="1">
          <mxGeometry x="320" y="680" width="20" height="20" as="geometry" />
        </mxCell>
        <mxCell id="DIi2TAScKpZwayUGl67N-180" style="edgeStyle=orthogonalEdgeStyle;rounded=0;orthogonalLoop=1;jettySize=auto;html=1;entryX=0.25;entryY=0;entryDx=0;entryDy=0;strokeColor=#333333;" edge="1" parent="1" source="DIi2TAScKpZwayUGl67N-165" target="DIi2TAScKpZwayUGl67N-119">
          <mxGeometry relative="1" as="geometry">
            <Array as="points">
              <mxPoint x="370" y="710" />
              <mxPoint x="380" y="710" />
            </Array>
          </mxGeometry>
        </mxCell>
        <mxCell id="DIi2TAScKpZwayUGl67N-165" value="" style="rounded=0;whiteSpace=wrap;html=1;fillColor=#d5e8d4;strokeColor=#82b366;fontSize=5;" vertex="1" parent="1">
          <mxGeometry x="360" y="680" width="20" height="20" as="geometry" />
        </mxCell>
        <mxCell id="DIi2TAScKpZwayUGl67N-181" style="edgeStyle=orthogonalEdgeStyle;rounded=0;orthogonalLoop=1;jettySize=auto;html=1;entryX=0.5;entryY=0;entryDx=0;entryDy=0;strokeColor=#808080;" edge="1" parent="1" source="DIi2TAScKpZwayUGl67N-166" target="DIi2TAScKpZwayUGl67N-119">
          <mxGeometry relative="1" as="geometry">
            <Array as="points">
              <mxPoint x="390" y="710" />
              <mxPoint x="400" y="710" />
            </Array>
          </mxGeometry>
        </mxCell>
        <mxCell id="DIi2TAScKpZwayUGl67N-166" value="" style="rounded=0;whiteSpace=wrap;html=1;fillColor=#d5e8d4;strokeColor=#82b366;fontSize=5;" vertex="1" parent="1">
          <mxGeometry x="380" y="680" width="20" height="20" as="geometry" />
        </mxCell>
        <mxCell id="DIi2TAScKpZwayUGl67N-182" style="edgeStyle=orthogonalEdgeStyle;rounded=0;orthogonalLoop=1;jettySize=auto;html=1;entryX=0.75;entryY=0;entryDx=0;entryDy=0;strokeColor=#CCCCCC;" edge="1" parent="1" source="DIi2TAScKpZwayUGl67N-167" target="DIi2TAScKpZwayUGl67N-119">
          <mxGeometry relative="1" as="geometry">
            <Array as="points">
              <mxPoint x="410" y="710" />
              <mxPoint x="420" y="710" />
            </Array>
          </mxGeometry>
        </mxCell>
        <mxCell id="DIi2TAScKpZwayUGl67N-167" value="" style="rounded=0;whiteSpace=wrap;html=1;fillColor=#d5e8d4;strokeColor=#82b366;fontSize=5;" vertex="1" parent="1">
          <mxGeometry x="400" y="680" width="20" height="20" as="geometry" />
        </mxCell>
        <mxCell id="DIi2TAScKpZwayUGl67N-183" style="edgeStyle=orthogonalEdgeStyle;rounded=0;orthogonalLoop=1;jettySize=auto;html=1;entryX=0.25;entryY=0;entryDx=0;entryDy=0;strokeColor=#333333;" edge="1" parent="1" source="DIi2TAScKpZwayUGl67N-168" target="DIi2TAScKpZwayUGl67N-121">
          <mxGeometry relative="1" as="geometry">
            <Array as="points">
              <mxPoint x="450" y="710" />
              <mxPoint x="460" y="710" />
            </Array>
          </mxGeometry>
        </mxCell>
        <mxCell id="DIi2TAScKpZwayUGl67N-168" value="" style="rounded=0;whiteSpace=wrap;html=1;fillColor=#d5e8d4;strokeColor=#82b366;fontSize=5;" vertex="1" parent="1">
          <mxGeometry x="440" y="680" width="20" height="20" as="geometry" />
        </mxCell>
        <mxCell id="DIi2TAScKpZwayUGl67N-184" style="edgeStyle=orthogonalEdgeStyle;rounded=0;orthogonalLoop=1;jettySize=auto;html=1;entryX=0.5;entryY=0;entryDx=0;entryDy=0;strokeColor=#808080;" edge="1" parent="1" source="DIi2TAScKpZwayUGl67N-169" target="DIi2TAScKpZwayUGl67N-121">
          <mxGeometry relative="1" as="geometry">
            <Array as="points">
              <mxPoint x="470" y="710" />
              <mxPoint x="480" y="710" />
            </Array>
          </mxGeometry>
        </mxCell>
        <mxCell id="DIi2TAScKpZwayUGl67N-169" value="" style="rounded=0;whiteSpace=wrap;html=1;fillColor=#d5e8d4;strokeColor=#82b366;fontSize=5;" vertex="1" parent="1">
          <mxGeometry x="460" y="680" width="20" height="20" as="geometry" />
        </mxCell>
        <mxCell id="DIi2TAScKpZwayUGl67N-185" style="edgeStyle=orthogonalEdgeStyle;rounded=0;orthogonalLoop=1;jettySize=auto;html=1;entryX=0.75;entryY=0;entryDx=0;entryDy=0;strokeColor=#CCCCCC;" edge="1" parent="1" source="DIi2TAScKpZwayUGl67N-170" target="DIi2TAScKpZwayUGl67N-121">
          <mxGeometry relative="1" as="geometry">
            <Array as="points">
              <mxPoint x="490" y="710" />
              <mxPoint x="500" y="710" />
            </Array>
          </mxGeometry>
        </mxCell>
        <mxCell id="DIi2TAScKpZwayUGl67N-170" value="" style="rounded=0;whiteSpace=wrap;html=1;fillColor=#d5e8d4;strokeColor=#82b366;fontSize=5;" vertex="1" parent="1">
          <mxGeometry x="480" y="680" width="20" height="20" as="geometry" />
        </mxCell>
        <mxCell id="DIi2TAScKpZwayUGl67N-186" style="edgeStyle=orthogonalEdgeStyle;rounded=0;orthogonalLoop=1;jettySize=auto;html=1;entryX=0.25;entryY=0;entryDx=0;entryDy=0;strokeColor=#333333;" edge="1" parent="1" source="DIi2TAScKpZwayUGl67N-171" target="DIi2TAScKpZwayUGl67N-123">
          <mxGeometry relative="1" as="geometry">
            <Array as="points">
              <mxPoint x="530" y="710" />
              <mxPoint x="540" y="710" />
            </Array>
          </mxGeometry>
        </mxCell>
        <mxCell id="DIi2TAScKpZwayUGl67N-171" value="" style="rounded=0;whiteSpace=wrap;html=1;fillColor=#d5e8d4;strokeColor=#82b366;fontSize=5;" vertex="1" parent="1">
          <mxGeometry x="520" y="680" width="20" height="20" as="geometry" />
        </mxCell>
        <mxCell id="DIi2TAScKpZwayUGl67N-187" style="edgeStyle=orthogonalEdgeStyle;rounded=0;orthogonalLoop=1;jettySize=auto;html=1;entryX=0.5;entryY=0;entryDx=0;entryDy=0;strokeColor=#808080;" edge="1" parent="1" source="DIi2TAScKpZwayUGl67N-172" target="DIi2TAScKpZwayUGl67N-123">
          <mxGeometry relative="1" as="geometry">
            <Array as="points">
              <mxPoint x="550" y="710" />
              <mxPoint x="560" y="710" />
            </Array>
          </mxGeometry>
        </mxCell>
        <mxCell id="DIi2TAScKpZwayUGl67N-172" value="" style="rounded=0;whiteSpace=wrap;html=1;fillColor=#d5e8d4;strokeColor=#82b366;fontSize=5;" vertex="1" parent="1">
          <mxGeometry x="540" y="680" width="20" height="20" as="geometry" />
        </mxCell>
        <mxCell id="DIi2TAScKpZwayUGl67N-188" style="edgeStyle=orthogonalEdgeStyle;rounded=0;orthogonalLoop=1;jettySize=auto;html=1;entryX=0.75;entryY=0;entryDx=0;entryDy=0;strokeColor=#CCCCCC;" edge="1" parent="1" source="DIi2TAScKpZwayUGl67N-173" target="DIi2TAScKpZwayUGl67N-123">
          <mxGeometry relative="1" as="geometry">
            <Array as="points">
              <mxPoint x="570" y="710" />
              <mxPoint x="580" y="710" />
            </Array>
          </mxGeometry>
        </mxCell>
        <mxCell id="DIi2TAScKpZwayUGl67N-173" value="" style="rounded=0;whiteSpace=wrap;html=1;fillColor=#d5e8d4;strokeColor=#82b366;fontSize=5;" vertex="1" parent="1">
          <mxGeometry x="560" y="680" width="20" height="20" as="geometry" />
        </mxCell>
        <mxCell id="DIi2TAScKpZwayUGl67N-189" style="edgeStyle=orthogonalEdgeStyle;rounded=0;orthogonalLoop=1;jettySize=auto;html=1;entryX=0.25;entryY=0;entryDx=0;entryDy=0;strokeColor=#333333;" edge="1" parent="1" source="DIi2TAScKpZwayUGl67N-174" target="DIi2TAScKpZwayUGl67N-136">
          <mxGeometry relative="1" as="geometry">
            <Array as="points">
              <mxPoint x="610" y="710" />
              <mxPoint x="620" y="710" />
            </Array>
          </mxGeometry>
        </mxCell>
        <mxCell id="DIi2TAScKpZwayUGl67N-174" value="" style="rounded=0;whiteSpace=wrap;html=1;fillColor=#d5e8d4;strokeColor=#82b366;fontSize=5;" vertex="1" parent="1">
          <mxGeometry x="600" y="680" width="20" height="20" as="geometry" />
        </mxCell>
        <mxCell id="DIi2TAScKpZwayUGl67N-190" style="edgeStyle=orthogonalEdgeStyle;rounded=0;orthogonalLoop=1;jettySize=auto;html=1;entryX=0.5;entryY=0;entryDx=0;entryDy=0;strokeColor=#808080;" edge="1" parent="1" source="DIi2TAScKpZwayUGl67N-175" target="DIi2TAScKpZwayUGl67N-136">
          <mxGeometry relative="1" as="geometry">
            <Array as="points">
              <mxPoint x="630" y="710" />
              <mxPoint x="640" y="710" />
            </Array>
          </mxGeometry>
        </mxCell>
        <mxCell id="DIi2TAScKpZwayUGl67N-175" value="" style="rounded=0;whiteSpace=wrap;html=1;fillColor=#d5e8d4;strokeColor=#82b366;fontSize=5;" vertex="1" parent="1">
          <mxGeometry x="620" y="680" width="20" height="20" as="geometry" />
        </mxCell>
        <mxCell id="DIi2TAScKpZwayUGl67N-191" style="edgeStyle=orthogonalEdgeStyle;rounded=0;orthogonalLoop=1;jettySize=auto;html=1;entryX=0.75;entryY=0;entryDx=0;entryDy=0;strokeColor=#CCCCCC;" edge="1" parent="1" source="DIi2TAScKpZwayUGl67N-176" target="DIi2TAScKpZwayUGl67N-136">
          <mxGeometry relative="1" as="geometry">
            <Array as="points">
              <mxPoint x="650" y="710" />
              <mxPoint x="660" y="710" />
            </Array>
          </mxGeometry>
        </mxCell>
        <mxCell id="DIi2TAScKpZwayUGl67N-176" value="" style="rounded=0;whiteSpace=wrap;html=1;fillColor=#d5e8d4;strokeColor=#82b366;fontSize=5;" vertex="1" parent="1">
          <mxGeometry x="640" y="680" width="20" height="20" as="geometry" />
        </mxCell>
        <mxCell id="DIi2TAScKpZwayUGl67N-156" style="edgeStyle=orthogonalEdgeStyle;rounded=0;orthogonalLoop=1;jettySize=auto;html=1;entryX=1;entryY=0;entryDx=0;entryDy=0;strokeColor=#000000;" edge="1" parent="1" source="DIi2TAScKpZwayUGl67N-155" target="DIi2TAScKpZwayUGl67N-105">
          <mxGeometry relative="1" as="geometry">
            <Array as="points">
              <mxPoint x="240" y="670" />
              <mxPoint x="280" y="670" />
            </Array>
          </mxGeometry>
        </mxCell>
        <mxCell id="DIi2TAScKpZwayUGl67N-158" style="edgeStyle=orthogonalEdgeStyle;rounded=0;orthogonalLoop=1;jettySize=auto;html=1;entryX=1;entryY=0;entryDx=0;entryDy=0;strokeColor=#000000;" edge="1" parent="1" source="DIi2TAScKpZwayUGl67N-115" target="DIi2TAScKpZwayUGl67N-111">
          <mxGeometry relative="1" as="geometry">
            <Array as="points">
              <mxPoint x="320" y="670" />
              <mxPoint x="360" y="670" />
            </Array>
          </mxGeometry>
        </mxCell>
        <mxCell id="DIi2TAScKpZwayUGl67N-159" style="edgeStyle=orthogonalEdgeStyle;rounded=0;orthogonalLoop=1;jettySize=auto;html=1;entryX=1;entryY=0;entryDx=0;entryDy=0;strokeColor=#000000;" edge="1" parent="1" source="DIi2TAScKpZwayUGl67N-117" target="DIi2TAScKpZwayUGl67N-119">
          <mxGeometry relative="1" as="geometry">
            <Array as="points">
              <mxPoint x="400" y="670" />
              <mxPoint x="440" y="670" />
            </Array>
          </mxGeometry>
        </mxCell>
        <mxCell id="DIi2TAScKpZwayUGl67N-160" style="edgeStyle=orthogonalEdgeStyle;rounded=0;orthogonalLoop=1;jettySize=auto;html=1;entryX=0;entryY=0;entryDx=0;entryDy=0;strokeColor=#000000;" edge="1" parent="1" source="DIi2TAScKpZwayUGl67N-135" target="DIi2TAScKpZwayUGl67N-123">
          <mxGeometry relative="1" as="geometry">
            <Array as="points">
              <mxPoint x="480" y="670" />
              <mxPoint x="520" y="670" />
            </Array>
          </mxGeometry>
        </mxCell>
        <mxCell id="DIi2TAScKpZwayUGl67N-161" style="edgeStyle=orthogonalEdgeStyle;rounded=0;orthogonalLoop=1;jettySize=auto;html=1;entryX=0;entryY=0;entryDx=0;entryDy=0;strokeColor=#000000;" edge="1" parent="1" source="DIi2TAScKpZwayUGl67N-157" target="DIi2TAScKpZwayUGl67N-136">
          <mxGeometry relative="1" as="geometry">
            <Array as="points">
              <mxPoint x="560" y="670" />
              <mxPoint x="600" y="670" />
            </Array>
          </mxGeometry>
        </mxCell>
        <mxCell id="DIi2TAScKpZwayUGl67N-199" value="" style="rounded=0;whiteSpace=wrap;html=1;fillColor=default;movable=1;resizable=1;rotatable=1;deletable=1;editable=1;locked=0;connectable=1;" vertex="1" parent="1">
          <mxGeometry x="80" y="850" width="760" height="210" as="geometry" />
        </mxCell>
        <mxCell id="DIi2TAScKpZwayUGl67N-200" value="&lt;h1 dir=&quot;auto&quot; class=&quot;heading-element&quot; tabindex=&quot;-1&quot;&gt;&lt;span style=&quot;font-size: 12px; font-weight: 400;&quot;&gt;Our Idea&lt;/span&gt;&lt;/h1&gt;&lt;div&gt;&lt;span style=&quot;font-size: 12px; font-weight: 400;&quot;&gt;Version 2&lt;/span&gt;&lt;/div&gt;" style="text;html=1;align=center;verticalAlign=middle;whiteSpace=wrap;rounded=0;" vertex="1" parent="1">
          <mxGeometry y="850" width="80" height="210" as="geometry" />
        </mxCell>
        <mxCell id="DIi2TAScKpZwayUGl67N-412" style="edgeStyle=orthogonalEdgeStyle;rounded=0;orthogonalLoop=1;jettySize=auto;html=1;exitX=1;exitY=1;exitDx=0;exitDy=0;entryX=0.5;entryY=0;entryDx=0;entryDy=0;strokeColor=#00CCCC;" edge="1" parent="1" source="DIi2TAScKpZwayUGl67N-201">
          <mxGeometry relative="1" as="geometry">
            <mxPoint x="280" y="1050" as="targetPoint" />
          </mxGeometry>
        </mxCell>
        <mxCell id="DIi2TAScKpZwayUGl67N-201" value="" style="rounded=0;whiteSpace=wrap;html=1;fillColor=#f8cecc;strokeColor=#b85450;" vertex="1" parent="1">
          <mxGeometry x="200" y="890" width="80" height="20" as="geometry" />
        </mxCell>
        <mxCell id="DIi2TAScKpZwayUGl67N-202" value="" style="rounded=0;whiteSpace=wrap;html=1;fillColor=#f8cecc;strokeColor=#b85450;" vertex="1" parent="1">
          <mxGeometry x="280" y="890" width="80" height="20" as="geometry" />
        </mxCell>
        <mxCell id="DIi2TAScKpZwayUGl67N-203" value="" style="rounded=0;whiteSpace=wrap;html=1;fillColor=#d5e8d4;strokeColor=#82b366;" vertex="1" parent="1">
          <mxGeometry x="120" y="850" width="80" height="20" as="geometry" />
        </mxCell>
        <mxCell id="DIi2TAScKpZwayUGl67N-413" style="edgeStyle=orthogonalEdgeStyle;rounded=0;orthogonalLoop=1;jettySize=auto;html=1;exitX=0;exitY=1;exitDx=0;exitDy=0;entryX=0.5;entryY=0;entryDx=0;entryDy=0;strokeColor=#00CCCC;" edge="1" parent="1" source="DIi2TAScKpZwayUGl67N-206">
          <mxGeometry relative="1" as="geometry">
            <mxPoint x="360" y="1050" as="targetPoint" />
          </mxGeometry>
        </mxCell>
        <mxCell id="DIi2TAScKpZwayUGl67N-414" style="edgeStyle=orthogonalEdgeStyle;rounded=0;orthogonalLoop=1;jettySize=auto;html=1;exitX=1;exitY=1;exitDx=0;exitDy=0;entryX=0.5;entryY=0;entryDx=0;entryDy=0;strokeColor=#00CCCC;" edge="1" parent="1" source="DIi2TAScKpZwayUGl67N-206">
          <mxGeometry relative="1" as="geometry">
            <mxPoint x="440" y="1050" as="targetPoint" />
          </mxGeometry>
        </mxCell>
        <mxCell id="DIi2TAScKpZwayUGl67N-206" value="" style="rounded=0;whiteSpace=wrap;html=1;fillColor=#f8cecc;strokeColor=#b85450;" vertex="1" parent="1">
          <mxGeometry x="360" y="890" width="80" height="20" as="geometry" />
        </mxCell>
        <mxCell id="DIi2TAScKpZwayUGl67N-415" style="edgeStyle=orthogonalEdgeStyle;rounded=0;orthogonalLoop=1;jettySize=auto;html=1;exitX=1;exitY=1;exitDx=0;exitDy=0;entryX=0.5;entryY=0;entryDx=0;entryDy=0;strokeColor=#00CCCC;" edge="1" parent="1" source="DIi2TAScKpZwayUGl67N-207">
          <mxGeometry relative="1" as="geometry">
            <mxPoint x="520" y="1050" as="targetPoint" />
          </mxGeometry>
        </mxCell>
        <mxCell id="DIi2TAScKpZwayUGl67N-207" value="" style="rounded=0;whiteSpace=wrap;html=1;fillColor=#f8cecc;strokeColor=#b85450;" vertex="1" parent="1">
          <mxGeometry x="440" y="890" width="80" height="20" as="geometry" />
        </mxCell>
        <mxCell id="DIi2TAScKpZwayUGl67N-416" style="edgeStyle=orthogonalEdgeStyle;rounded=0;orthogonalLoop=1;jettySize=auto;html=1;exitX=1;exitY=1;exitDx=0;exitDy=0;entryX=0.5;entryY=0;entryDx=0;entryDy=0;strokeColor=#00CCCC;" edge="1" parent="1" source="DIi2TAScKpZwayUGl67N-208">
          <mxGeometry relative="1" as="geometry">
            <mxPoint x="600" y="1050" as="targetPoint" />
          </mxGeometry>
        </mxCell>
        <mxCell id="DIi2TAScKpZwayUGl67N-208" value="" style="rounded=0;whiteSpace=wrap;html=1;fillColor=#f8cecc;strokeColor=#b85450;" vertex="1" parent="1">
          <mxGeometry x="520" y="890" width="80" height="20" as="geometry" />
        </mxCell>
        <mxCell id="DIi2TAScKpZwayUGl67N-417" style="edgeStyle=orthogonalEdgeStyle;rounded=0;orthogonalLoop=1;jettySize=auto;html=1;exitX=1;exitY=1;exitDx=0;exitDy=0;entryX=0.5;entryY=0;entryDx=0;entryDy=0;strokeColor=#00CCCC;" edge="1" parent="1" source="DIi2TAScKpZwayUGl67N-216">
          <mxGeometry relative="1" as="geometry">
            <mxPoint x="680" y="1050" as="targetPoint" />
          </mxGeometry>
        </mxCell>
        <mxCell id="DIi2TAScKpZwayUGl67N-216" value="" style="rounded=0;whiteSpace=wrap;html=1;fillColor=#f8cecc;strokeColor=#b85450;" vertex="1" parent="1">
          <mxGeometry x="600" y="890" width="80" height="20" as="geometry" />
        </mxCell>
        <mxCell id="DIi2TAScKpZwayUGl67N-217" value="" style="rounded=0;whiteSpace=wrap;html=1;fillColor=#d5e8d4;strokeColor=#82b366;fontSize=5;" vertex="1" parent="1">
          <mxGeometry x="200" y="850" width="20" height="20" as="geometry" />
        </mxCell>
        <mxCell id="DIi2TAScKpZwayUGl67N-218" style="edgeStyle=orthogonalEdgeStyle;rounded=0;orthogonalLoop=1;jettySize=auto;html=1;exitX=0.5;exitY=1;exitDx=0;exitDy=0;entryX=0.5;entryY=0;entryDx=0;entryDy=0;strokeColor=#808080;" edge="1" parent="1" source="DIi2TAScKpZwayUGl67N-219" target="DIi2TAScKpZwayUGl67N-201">
          <mxGeometry relative="1" as="geometry">
            <Array as="points">
              <mxPoint x="230" y="880" />
              <mxPoint x="240" y="880" />
            </Array>
          </mxGeometry>
        </mxCell>
        <mxCell id="DIi2TAScKpZwayUGl67N-219" value="" style="rounded=0;whiteSpace=wrap;html=1;fillColor=#d5e8d4;strokeColor=#82b366;fontSize=5;" vertex="1" parent="1">
          <mxGeometry x="220" y="850" width="20" height="20" as="geometry" />
        </mxCell>
        <mxCell id="DIi2TAScKpZwayUGl67N-220" style="edgeStyle=orthogonalEdgeStyle;rounded=0;orthogonalLoop=1;jettySize=auto;html=1;entryX=0.75;entryY=0;entryDx=0;entryDy=0;exitX=0.5;exitY=1;exitDx=0;exitDy=0;strokeColor=#CCCCCC;" edge="1" parent="1" source="DIi2TAScKpZwayUGl67N-221" target="DIi2TAScKpZwayUGl67N-201">
          <mxGeometry relative="1" as="geometry">
            <Array as="points">
              <mxPoint x="250" y="880" />
              <mxPoint x="260" y="880" />
            </Array>
          </mxGeometry>
        </mxCell>
        <mxCell id="DIi2TAScKpZwayUGl67N-221" value="" style="rounded=0;whiteSpace=wrap;html=1;fillColor=#d5e8d4;strokeColor=#82b366;fontSize=5;" vertex="1" parent="1">
          <mxGeometry x="240" y="850" width="20" height="20" as="geometry" />
        </mxCell>
        <mxCell id="DIi2TAScKpZwayUGl67N-222" style="edgeStyle=orthogonalEdgeStyle;rounded=0;orthogonalLoop=1;jettySize=auto;html=1;entryX=0.25;entryY=0;entryDx=0;entryDy=0;strokeColor=#333333;exitX=0.5;exitY=1;exitDx=0;exitDy=0;" edge="1" parent="1" source="DIi2TAScKpZwayUGl67N-217" target="DIi2TAScKpZwayUGl67N-201">
          <mxGeometry relative="1" as="geometry">
            <Array as="points">
              <mxPoint x="210" y="880" />
              <mxPoint x="220" y="880" />
            </Array>
          </mxGeometry>
        </mxCell>
        <mxCell id="DIi2TAScKpZwayUGl67N-224" style="edgeStyle=orthogonalEdgeStyle;rounded=0;orthogonalLoop=1;jettySize=auto;html=1;entryX=0;entryY=0;entryDx=0;entryDy=0;strokeColor=#000000;" edge="1" parent="1" source="DIi2TAScKpZwayUGl67N-203" target="DIi2TAScKpZwayUGl67N-201">
          <mxGeometry relative="1" as="geometry">
            <Array as="points">
              <mxPoint x="160" y="880" />
              <mxPoint x="200" y="880" />
            </Array>
          </mxGeometry>
        </mxCell>
        <mxCell id="DIi2TAScKpZwayUGl67N-226" style="edgeStyle=orthogonalEdgeStyle;rounded=0;orthogonalLoop=1;jettySize=auto;html=1;entryX=0.25;entryY=0;entryDx=0;entryDy=0;strokeColor=#4D4D4D;" edge="1" parent="1" source="DIi2TAScKpZwayUGl67N-227" target="DIi2TAScKpZwayUGl67N-202">
          <mxGeometry relative="1" as="geometry">
            <Array as="points">
              <mxPoint x="290" y="880" />
              <mxPoint x="300" y="880" />
            </Array>
          </mxGeometry>
        </mxCell>
        <mxCell id="DIi2TAScKpZwayUGl67N-227" value="" style="rounded=0;whiteSpace=wrap;html=1;fillColor=#d5e8d4;strokeColor=#82b366;fontSize=5;" vertex="1" parent="1">
          <mxGeometry x="280" y="850" width="20" height="20" as="geometry" />
        </mxCell>
        <mxCell id="DIi2TAScKpZwayUGl67N-228" style="edgeStyle=orthogonalEdgeStyle;rounded=0;orthogonalLoop=1;jettySize=auto;html=1;entryX=0.5;entryY=0;entryDx=0;entryDy=0;strokeColor=#808080;" edge="1" parent="1" source="DIi2TAScKpZwayUGl67N-229" target="DIi2TAScKpZwayUGl67N-202">
          <mxGeometry relative="1" as="geometry">
            <Array as="points">
              <mxPoint x="310" y="880" />
              <mxPoint x="320" y="880" />
            </Array>
          </mxGeometry>
        </mxCell>
        <mxCell id="DIi2TAScKpZwayUGl67N-229" value="" style="rounded=0;whiteSpace=wrap;html=1;fillColor=#d5e8d4;strokeColor=#82b366;fontSize=5;" vertex="1" parent="1">
          <mxGeometry x="300" y="850" width="20" height="20" as="geometry" />
        </mxCell>
        <mxCell id="DIi2TAScKpZwayUGl67N-230" style="edgeStyle=orthogonalEdgeStyle;rounded=0;orthogonalLoop=1;jettySize=auto;html=1;entryX=0.75;entryY=0;entryDx=0;entryDy=0;strokeColor=#CCCCCC;" edge="1" parent="1" source="DIi2TAScKpZwayUGl67N-231" target="DIi2TAScKpZwayUGl67N-202">
          <mxGeometry relative="1" as="geometry">
            <Array as="points">
              <mxPoint x="330" y="880" />
              <mxPoint x="340" y="880" />
            </Array>
          </mxGeometry>
        </mxCell>
        <mxCell id="DIi2TAScKpZwayUGl67N-231" value="" style="rounded=0;whiteSpace=wrap;html=1;fillColor=#d5e8d4;strokeColor=#82b366;fontSize=5;" vertex="1" parent="1">
          <mxGeometry x="320" y="850" width="20" height="20" as="geometry" />
        </mxCell>
        <mxCell id="DIi2TAScKpZwayUGl67N-232" style="edgeStyle=orthogonalEdgeStyle;rounded=0;orthogonalLoop=1;jettySize=auto;html=1;entryX=0.25;entryY=0;entryDx=0;entryDy=0;strokeColor=#333333;" edge="1" parent="1" source="DIi2TAScKpZwayUGl67N-233" target="DIi2TAScKpZwayUGl67N-206">
          <mxGeometry relative="1" as="geometry">
            <Array as="points">
              <mxPoint x="370" y="880" />
              <mxPoint x="380" y="880" />
            </Array>
          </mxGeometry>
        </mxCell>
        <mxCell id="DIi2TAScKpZwayUGl67N-233" value="" style="rounded=0;whiteSpace=wrap;html=1;fillColor=#d5e8d4;strokeColor=#82b366;fontSize=5;" vertex="1" parent="1">
          <mxGeometry x="360" y="850" width="20" height="20" as="geometry" />
        </mxCell>
        <mxCell id="DIi2TAScKpZwayUGl67N-234" style="edgeStyle=orthogonalEdgeStyle;rounded=0;orthogonalLoop=1;jettySize=auto;html=1;entryX=0.5;entryY=0;entryDx=0;entryDy=0;strokeColor=#808080;" edge="1" parent="1" source="DIi2TAScKpZwayUGl67N-235" target="DIi2TAScKpZwayUGl67N-206">
          <mxGeometry relative="1" as="geometry">
            <Array as="points">
              <mxPoint x="390" y="880" />
              <mxPoint x="400" y="880" />
            </Array>
          </mxGeometry>
        </mxCell>
        <mxCell id="DIi2TAScKpZwayUGl67N-235" value="" style="rounded=0;whiteSpace=wrap;html=1;fillColor=#d5e8d4;strokeColor=#82b366;fontSize=5;" vertex="1" parent="1">
          <mxGeometry x="380" y="850" width="20" height="20" as="geometry" />
        </mxCell>
        <mxCell id="DIi2TAScKpZwayUGl67N-236" style="edgeStyle=orthogonalEdgeStyle;rounded=0;orthogonalLoop=1;jettySize=auto;html=1;entryX=0.75;entryY=0;entryDx=0;entryDy=0;strokeColor=#CCCCCC;" edge="1" parent="1" source="DIi2TAScKpZwayUGl67N-237" target="DIi2TAScKpZwayUGl67N-206">
          <mxGeometry relative="1" as="geometry">
            <Array as="points">
              <mxPoint x="410" y="880" />
              <mxPoint x="420" y="880" />
            </Array>
          </mxGeometry>
        </mxCell>
        <mxCell id="DIi2TAScKpZwayUGl67N-237" value="" style="rounded=0;whiteSpace=wrap;html=1;fillColor=#d5e8d4;strokeColor=#82b366;fontSize=5;" vertex="1" parent="1">
          <mxGeometry x="400" y="850" width="20" height="20" as="geometry" />
        </mxCell>
        <mxCell id="DIi2TAScKpZwayUGl67N-238" style="edgeStyle=orthogonalEdgeStyle;rounded=0;orthogonalLoop=1;jettySize=auto;html=1;entryX=0.25;entryY=0;entryDx=0;entryDy=0;strokeColor=#333333;" edge="1" parent="1" source="DIi2TAScKpZwayUGl67N-239" target="DIi2TAScKpZwayUGl67N-207">
          <mxGeometry relative="1" as="geometry">
            <Array as="points">
              <mxPoint x="450" y="880" />
              <mxPoint x="460" y="880" />
            </Array>
          </mxGeometry>
        </mxCell>
        <mxCell id="DIi2TAScKpZwayUGl67N-239" value="" style="rounded=0;whiteSpace=wrap;html=1;fillColor=#d5e8d4;strokeColor=#82b366;fontSize=5;" vertex="1" parent="1">
          <mxGeometry x="440" y="850" width="20" height="20" as="geometry" />
        </mxCell>
        <mxCell id="DIi2TAScKpZwayUGl67N-240" style="edgeStyle=orthogonalEdgeStyle;rounded=0;orthogonalLoop=1;jettySize=auto;html=1;entryX=0.5;entryY=0;entryDx=0;entryDy=0;strokeColor=#808080;" edge="1" parent="1" source="DIi2TAScKpZwayUGl67N-241" target="DIi2TAScKpZwayUGl67N-207">
          <mxGeometry relative="1" as="geometry">
            <Array as="points">
              <mxPoint x="470" y="880" />
              <mxPoint x="480" y="880" />
            </Array>
          </mxGeometry>
        </mxCell>
        <mxCell id="DIi2TAScKpZwayUGl67N-241" value="" style="rounded=0;whiteSpace=wrap;html=1;fillColor=#d5e8d4;strokeColor=#82b366;fontSize=5;" vertex="1" parent="1">
          <mxGeometry x="460" y="850" width="20" height="20" as="geometry" />
        </mxCell>
        <mxCell id="DIi2TAScKpZwayUGl67N-242" style="edgeStyle=orthogonalEdgeStyle;rounded=0;orthogonalLoop=1;jettySize=auto;html=1;entryX=0.75;entryY=0;entryDx=0;entryDy=0;strokeColor=#CCCCCC;" edge="1" parent="1" source="DIi2TAScKpZwayUGl67N-243" target="DIi2TAScKpZwayUGl67N-207">
          <mxGeometry relative="1" as="geometry">
            <Array as="points">
              <mxPoint x="490" y="880" />
              <mxPoint x="500" y="880" />
            </Array>
          </mxGeometry>
        </mxCell>
        <mxCell id="DIi2TAScKpZwayUGl67N-243" value="" style="rounded=0;whiteSpace=wrap;html=1;fillColor=#d5e8d4;strokeColor=#82b366;fontSize=5;" vertex="1" parent="1">
          <mxGeometry x="480" y="850" width="20" height="20" as="geometry" />
        </mxCell>
        <mxCell id="DIi2TAScKpZwayUGl67N-244" style="edgeStyle=orthogonalEdgeStyle;rounded=0;orthogonalLoop=1;jettySize=auto;html=1;entryX=0.25;entryY=0;entryDx=0;entryDy=0;strokeColor=#333333;" edge="1" parent="1" source="DIi2TAScKpZwayUGl67N-245" target="DIi2TAScKpZwayUGl67N-208">
          <mxGeometry relative="1" as="geometry">
            <Array as="points">
              <mxPoint x="530" y="880" />
              <mxPoint x="540" y="880" />
            </Array>
          </mxGeometry>
        </mxCell>
        <mxCell id="DIi2TAScKpZwayUGl67N-245" value="" style="rounded=0;whiteSpace=wrap;html=1;fillColor=#d5e8d4;strokeColor=#82b366;fontSize=5;" vertex="1" parent="1">
          <mxGeometry x="520" y="850" width="20" height="20" as="geometry" />
        </mxCell>
        <mxCell id="DIi2TAScKpZwayUGl67N-246" style="edgeStyle=orthogonalEdgeStyle;rounded=0;orthogonalLoop=1;jettySize=auto;html=1;entryX=0.5;entryY=0;entryDx=0;entryDy=0;strokeColor=#808080;" edge="1" parent="1" source="DIi2TAScKpZwayUGl67N-247" target="DIi2TAScKpZwayUGl67N-208">
          <mxGeometry relative="1" as="geometry">
            <Array as="points">
              <mxPoint x="550" y="880" />
              <mxPoint x="560" y="880" />
            </Array>
          </mxGeometry>
        </mxCell>
        <mxCell id="DIi2TAScKpZwayUGl67N-247" value="" style="rounded=0;whiteSpace=wrap;html=1;fillColor=#d5e8d4;strokeColor=#82b366;fontSize=5;" vertex="1" parent="1">
          <mxGeometry x="540" y="850" width="20" height="20" as="geometry" />
        </mxCell>
        <mxCell id="DIi2TAScKpZwayUGl67N-248" style="edgeStyle=orthogonalEdgeStyle;rounded=0;orthogonalLoop=1;jettySize=auto;html=1;entryX=0.75;entryY=0;entryDx=0;entryDy=0;strokeColor=#CCCCCC;" edge="1" parent="1" source="DIi2TAScKpZwayUGl67N-249" target="DIi2TAScKpZwayUGl67N-208">
          <mxGeometry relative="1" as="geometry">
            <Array as="points">
              <mxPoint x="570" y="880" />
              <mxPoint x="580" y="880" />
            </Array>
          </mxGeometry>
        </mxCell>
        <mxCell id="DIi2TAScKpZwayUGl67N-249" value="" style="rounded=0;whiteSpace=wrap;html=1;fillColor=#d5e8d4;strokeColor=#82b366;fontSize=5;" vertex="1" parent="1">
          <mxGeometry x="560" y="850" width="20" height="20" as="geometry" />
        </mxCell>
        <mxCell id="DIi2TAScKpZwayUGl67N-250" style="edgeStyle=orthogonalEdgeStyle;rounded=0;orthogonalLoop=1;jettySize=auto;html=1;entryX=0.25;entryY=0;entryDx=0;entryDy=0;strokeColor=#333333;" edge="1" parent="1" source="DIi2TAScKpZwayUGl67N-251" target="DIi2TAScKpZwayUGl67N-216">
          <mxGeometry relative="1" as="geometry">
            <Array as="points">
              <mxPoint x="610" y="880" />
              <mxPoint x="620" y="880" />
            </Array>
          </mxGeometry>
        </mxCell>
        <mxCell id="DIi2TAScKpZwayUGl67N-251" value="" style="rounded=0;whiteSpace=wrap;html=1;fillColor=#d5e8d4;strokeColor=#82b366;fontSize=5;" vertex="1" parent="1">
          <mxGeometry x="600" y="850" width="20" height="20" as="geometry" />
        </mxCell>
        <mxCell id="DIi2TAScKpZwayUGl67N-252" style="edgeStyle=orthogonalEdgeStyle;rounded=0;orthogonalLoop=1;jettySize=auto;html=1;entryX=0.5;entryY=0;entryDx=0;entryDy=0;strokeColor=#808080;" edge="1" parent="1" source="DIi2TAScKpZwayUGl67N-253" target="DIi2TAScKpZwayUGl67N-216">
          <mxGeometry relative="1" as="geometry">
            <Array as="points">
              <mxPoint x="630" y="880" />
              <mxPoint x="640" y="880" />
            </Array>
          </mxGeometry>
        </mxCell>
        <mxCell id="DIi2TAScKpZwayUGl67N-253" value="" style="rounded=0;whiteSpace=wrap;html=1;fillColor=#d5e8d4;strokeColor=#82b366;fontSize=5;" vertex="1" parent="1">
          <mxGeometry x="620" y="850" width="20" height="20" as="geometry" />
        </mxCell>
        <mxCell id="DIi2TAScKpZwayUGl67N-254" style="edgeStyle=orthogonalEdgeStyle;rounded=0;orthogonalLoop=1;jettySize=auto;html=1;entryX=0.75;entryY=0;entryDx=0;entryDy=0;strokeColor=#CCCCCC;" edge="1" parent="1" source="DIi2TAScKpZwayUGl67N-255" target="DIi2TAScKpZwayUGl67N-216">
          <mxGeometry relative="1" as="geometry">
            <Array as="points">
              <mxPoint x="650" y="880" />
              <mxPoint x="660" y="880" />
            </Array>
          </mxGeometry>
        </mxCell>
        <mxCell id="DIi2TAScKpZwayUGl67N-255" value="" style="rounded=0;whiteSpace=wrap;html=1;fillColor=#d5e8d4;strokeColor=#82b366;fontSize=5;" vertex="1" parent="1">
          <mxGeometry x="640" y="850" width="20" height="20" as="geometry" />
        </mxCell>
        <mxCell id="DIi2TAScKpZwayUGl67N-272" style="edgeStyle=orthogonalEdgeStyle;rounded=0;orthogonalLoop=1;jettySize=auto;html=1;entryX=0;entryY=0;entryDx=0;entryDy=0;" edge="1" parent="1" source="DIi2TAScKpZwayUGl67N-267" target="DIi2TAScKpZwayUGl67N-202">
          <mxGeometry relative="1" as="geometry">
            <Array as="points">
              <mxPoint x="270" y="880" />
              <mxPoint x="280" y="880" />
            </Array>
          </mxGeometry>
        </mxCell>
        <mxCell id="DIi2TAScKpZwayUGl67N-267" value="" style="rounded=0;whiteSpace=wrap;html=1;fillColor=#d5e8d4;strokeColor=#82b366;fontSize=5;" vertex="1" parent="1">
          <mxGeometry x="260" y="850" width="20" height="20" as="geometry" />
        </mxCell>
        <mxCell id="DIi2TAScKpZwayUGl67N-273" style="edgeStyle=orthogonalEdgeStyle;rounded=0;orthogonalLoop=1;jettySize=auto;html=1;entryX=0;entryY=0;entryDx=0;entryDy=0;" edge="1" parent="1" source="DIi2TAScKpZwayUGl67N-268" target="DIi2TAScKpZwayUGl67N-206">
          <mxGeometry relative="1" as="geometry">
            <Array as="points">
              <mxPoint x="350" y="880" />
              <mxPoint x="360" y="880" />
            </Array>
          </mxGeometry>
        </mxCell>
        <mxCell id="DIi2TAScKpZwayUGl67N-268" value="" style="rounded=0;whiteSpace=wrap;html=1;fillColor=#d5e8d4;strokeColor=#82b366;fontSize=5;" vertex="1" parent="1">
          <mxGeometry x="340" y="850" width="20" height="20" as="geometry" />
        </mxCell>
        <mxCell id="DIi2TAScKpZwayUGl67N-274" style="edgeStyle=orthogonalEdgeStyle;rounded=0;orthogonalLoop=1;jettySize=auto;html=1;entryX=0;entryY=0;entryDx=0;entryDy=0;" edge="1" parent="1" source="DIi2TAScKpZwayUGl67N-269" target="DIi2TAScKpZwayUGl67N-207">
          <mxGeometry relative="1" as="geometry">
            <Array as="points">
              <mxPoint x="430" y="880" />
              <mxPoint x="440" y="880" />
            </Array>
          </mxGeometry>
        </mxCell>
        <mxCell id="DIi2TAScKpZwayUGl67N-269" value="" style="rounded=0;whiteSpace=wrap;html=1;fillColor=#d5e8d4;strokeColor=#82b366;fontSize=5;" vertex="1" parent="1">
          <mxGeometry x="420" y="850" width="20" height="20" as="geometry" />
        </mxCell>
        <mxCell id="DIi2TAScKpZwayUGl67N-275" style="edgeStyle=orthogonalEdgeStyle;rounded=0;orthogonalLoop=1;jettySize=auto;html=1;entryX=1;entryY=0;entryDx=0;entryDy=0;" edge="1" parent="1" source="DIi2TAScKpZwayUGl67N-270" target="DIi2TAScKpZwayUGl67N-207">
          <mxGeometry relative="1" as="geometry">
            <Array as="points">
              <mxPoint x="510" y="880" />
              <mxPoint x="520" y="880" />
            </Array>
          </mxGeometry>
        </mxCell>
        <mxCell id="DIi2TAScKpZwayUGl67N-270" value="" style="rounded=0;whiteSpace=wrap;html=1;fillColor=#d5e8d4;strokeColor=#82b366;fontSize=5;" vertex="1" parent="1">
          <mxGeometry x="500" y="850" width="20" height="20" as="geometry" />
        </mxCell>
        <mxCell id="DIi2TAScKpZwayUGl67N-276" style="edgeStyle=orthogonalEdgeStyle;rounded=0;orthogonalLoop=1;jettySize=auto;html=1;entryX=0;entryY=0;entryDx=0;entryDy=0;" edge="1" parent="1" source="DIi2TAScKpZwayUGl67N-271" target="DIi2TAScKpZwayUGl67N-216">
          <mxGeometry relative="1" as="geometry">
            <Array as="points">
              <mxPoint x="590" y="880" />
              <mxPoint x="600" y="880" />
            </Array>
          </mxGeometry>
        </mxCell>
        <mxCell id="DIi2TAScKpZwayUGl67N-271" value="" style="rounded=0;whiteSpace=wrap;html=1;fillColor=#d5e8d4;strokeColor=#82b366;fontSize=5;" vertex="1" parent="1">
          <mxGeometry x="580" y="850" width="20" height="20" as="geometry" />
        </mxCell>
        <mxCell id="DIi2TAScKpZwayUGl67N-282" value="" style="rounded=0;whiteSpace=wrap;html=1;fillColor=#ffe6cc;strokeColor=#d79b00;" vertex="1" parent="1">
          <mxGeometry x="120" y="490" width="80" height="20" as="geometry" />
        </mxCell>
        <mxCell id="DIi2TAScKpZwayUGl67N-370" style="edgeStyle=orthogonalEdgeStyle;rounded=0;orthogonalLoop=1;jettySize=auto;html=1;entryX=0;entryY=1;entryDx=0;entryDy=0;strokeColor=#FF8000;" edge="1" parent="1" source="DIi2TAScKpZwayUGl67N-283" target="DIi2TAScKpZwayUGl67N-66">
          <mxGeometry relative="1" as="geometry">
            <Array as="points">
              <mxPoint x="320" y="480" />
              <mxPoint x="380" y="480" />
              <mxPoint x="380" y="470" />
              <mxPoint x="440" y="470" />
            </Array>
          </mxGeometry>
        </mxCell>
        <mxCell id="DIi2TAScKpZwayUGl67N-283" value="" style="rounded=0;whiteSpace=wrap;html=1;fillColor=#ffe6cc;strokeColor=#d79b00;" vertex="1" parent="1">
          <mxGeometry x="280" y="490" width="80" height="20" as="geometry" />
        </mxCell>
        <mxCell id="DIi2TAScKpZwayUGl67N-284" value="" style="rounded=0;whiteSpace=wrap;html=1;fillColor=#ffe6cc;strokeColor=#d79b00;" vertex="1" parent="1">
          <mxGeometry x="360" y="490" width="80" height="20" as="geometry" />
        </mxCell>
        <mxCell id="DIi2TAScKpZwayUGl67N-285" value="" style="rounded=0;whiteSpace=wrap;html=1;fillColor=#ffe6cc;strokeColor=#d79b00;" vertex="1" parent="1">
          <mxGeometry x="440" y="490" width="80" height="20" as="geometry" />
        </mxCell>
        <mxCell id="DIi2TAScKpZwayUGl67N-286" value="" style="rounded=0;whiteSpace=wrap;html=1;fillColor=#ffe6cc;strokeColor=#d79b00;" vertex="1" parent="1">
          <mxGeometry x="520" y="490" width="80" height="20" as="geometry" />
        </mxCell>
        <mxCell id="DIi2TAScKpZwayUGl67N-291" value="" style="rounded=0;whiteSpace=wrap;html=1;fillColor=#ffe6cc;strokeColor=#d79b00;" vertex="1" parent="1">
          <mxGeometry x="120" y="940" width="80" height="20" as="geometry" />
        </mxCell>
        <mxCell id="DIi2TAScKpZwayUGl67N-292" value="" style="rounded=0;whiteSpace=wrap;html=1;fillColor=#ffe6cc;strokeColor=#d79b00;" vertex="1" parent="1">
          <mxGeometry x="260" y="940" width="80" height="20" as="geometry" />
        </mxCell>
        <mxCell id="DIi2TAScKpZwayUGl67N-293" value="" style="rounded=0;whiteSpace=wrap;html=1;fillColor=#ffe6cc;strokeColor=#d79b00;" vertex="1" parent="1">
          <mxGeometry x="340" y="940" width="80" height="20" as="geometry" />
        </mxCell>
        <mxCell id="DIi2TAScKpZwayUGl67N-294" value="" style="rounded=0;whiteSpace=wrap;html=1;fillColor=#ffe6cc;strokeColor=#d79b00;" vertex="1" parent="1">
          <mxGeometry x="420" y="940" width="80" height="20" as="geometry" />
        </mxCell>
        <mxCell id="DIi2TAScKpZwayUGl67N-295" value="" style="rounded=0;whiteSpace=wrap;html=1;fillColor=#ffe6cc;strokeColor=#d79b00;" vertex="1" parent="1">
          <mxGeometry x="500" y="940" width="80" height="20" as="geometry" />
        </mxCell>
        <mxCell id="DIi2TAScKpZwayUGl67N-82" style="edgeStyle=orthogonalEdgeStyle;rounded=0;orthogonalLoop=1;jettySize=auto;html=1;entryX=0;entryY=1;entryDx=0;entryDy=0;exitX=0.5;exitY=0;exitDx=0;exitDy=0;strokeColor=#FF8000;" edge="1" parent="1" source="DIi2TAScKpZwayUGl67N-282" target="DIi2TAScKpZwayUGl67N-59">
          <mxGeometry relative="1" as="geometry">
            <Array as="points">
              <mxPoint x="160" y="470" />
              <mxPoint x="360" y="470" />
            </Array>
          </mxGeometry>
        </mxCell>
        <mxCell id="DIi2TAScKpZwayUGl67N-85" style="edgeStyle=orthogonalEdgeStyle;rounded=0;orthogonalLoop=1;jettySize=auto;html=1;exitX=0.5;exitY=0;exitDx=0;exitDy=0;entryX=0;entryY=1;entryDx=0;entryDy=0;strokeColor=#FF8000;" edge="1" parent="1" source="DIi2TAScKpZwayUGl67N-284" target="DIi2TAScKpZwayUGl67N-67">
          <mxGeometry relative="1" as="geometry">
            <Array as="points">
              <mxPoint x="400" y="480" />
              <mxPoint x="460" y="480" />
              <mxPoint x="460" y="470" />
              <mxPoint x="520" y="470" />
            </Array>
          </mxGeometry>
        </mxCell>
        <mxCell id="DIi2TAScKpZwayUGl67N-101" style="edgeStyle=orthogonalEdgeStyle;rounded=0;orthogonalLoop=1;jettySize=auto;html=1;exitX=0.5;exitY=0;exitDx=0;exitDy=0;entryX=0;entryY=1;entryDx=0;entryDy=0;strokeColor=#FF8000;" edge="1" parent="1" source="DIi2TAScKpZwayUGl67N-286" target="DIi2TAScKpZwayUGl67N-99">
          <mxGeometry relative="1" as="geometry">
            <Array as="points">
              <mxPoint x="560" y="480" />
              <mxPoint x="620" y="480" />
              <mxPoint x="620" y="470" />
              <mxPoint x="680" y="470" />
            </Array>
          </mxGeometry>
        </mxCell>
        <mxCell id="DIi2TAScKpZwayUGl67N-86" style="edgeStyle=orthogonalEdgeStyle;rounded=0;orthogonalLoop=1;jettySize=auto;html=1;exitX=0.5;exitY=0;exitDx=0;exitDy=0;entryX=0;entryY=1;entryDx=0;entryDy=0;strokeColor=#FF8000;" edge="1" parent="1" source="DIi2TAScKpZwayUGl67N-285" target="DIi2TAScKpZwayUGl67N-68">
          <mxGeometry relative="1" as="geometry">
            <Array as="points">
              <mxPoint x="480" y="480" />
              <mxPoint x="540" y="480" />
              <mxPoint x="540" y="470" />
              <mxPoint x="600" y="470" />
            </Array>
          </mxGeometry>
        </mxCell>
        <mxCell id="DIi2TAScKpZwayUGl67N-277" style="edgeStyle=orthogonalEdgeStyle;rounded=0;orthogonalLoop=1;jettySize=auto;html=1;exitX=0.5;exitY=0;exitDx=0;exitDy=0;entryX=0;entryY=1;entryDx=0;entryDy=0;strokeColor=#FF8000;" edge="1" parent="1" source="DIi2TAScKpZwayUGl67N-291" target="DIi2TAScKpZwayUGl67N-202">
          <mxGeometry relative="1" as="geometry">
            <Array as="points">
              <mxPoint x="160" y="930" />
              <mxPoint x="280" y="930" />
            </Array>
          </mxGeometry>
        </mxCell>
        <mxCell id="DIi2TAScKpZwayUGl67N-278" style="edgeStyle=orthogonalEdgeStyle;rounded=0;orthogonalLoop=1;jettySize=auto;html=1;exitX=0.5;exitY=0;exitDx=0;exitDy=0;entryX=0;entryY=1;entryDx=0;entryDy=0;strokeColor=#FF8000;" edge="1" parent="1" source="DIi2TAScKpZwayUGl67N-292" target="DIi2TAScKpZwayUGl67N-206">
          <mxGeometry relative="1" as="geometry">
            <Array as="points">
              <mxPoint x="300" y="930" />
              <mxPoint x="360" y="930" />
            </Array>
          </mxGeometry>
        </mxCell>
        <mxCell id="DIi2TAScKpZwayUGl67N-279" style="edgeStyle=orthogonalEdgeStyle;rounded=0;orthogonalLoop=1;jettySize=auto;html=1;exitX=0.5;exitY=0;exitDx=0;exitDy=0;entryX=0;entryY=1;entryDx=0;entryDy=0;strokeColor=#FF8000;" edge="1" parent="1" source="DIi2TAScKpZwayUGl67N-293" target="DIi2TAScKpZwayUGl67N-207">
          <mxGeometry relative="1" as="geometry">
            <Array as="points">
              <mxPoint x="380" y="930" />
              <mxPoint x="440" y="930" />
            </Array>
          </mxGeometry>
        </mxCell>
        <mxCell id="DIi2TAScKpZwayUGl67N-281" style="edgeStyle=orthogonalEdgeStyle;rounded=0;orthogonalLoop=1;jettySize=auto;html=1;exitX=0.5;exitY=0;exitDx=0;exitDy=0;entryX=0;entryY=1;entryDx=0;entryDy=0;strokeColor=#FF8000;" edge="1" parent="1" source="DIi2TAScKpZwayUGl67N-295" target="DIi2TAScKpZwayUGl67N-216">
          <mxGeometry relative="1" as="geometry">
            <Array as="points">
              <mxPoint x="540" y="930" />
              <mxPoint x="600" y="930" />
            </Array>
          </mxGeometry>
        </mxCell>
        <mxCell id="DIi2TAScKpZwayUGl67N-280" style="edgeStyle=orthogonalEdgeStyle;rounded=0;orthogonalLoop=1;jettySize=auto;html=1;exitX=0.5;exitY=0;exitDx=0;exitDy=0;entryX=1;entryY=1;entryDx=0;entryDy=0;strokeColor=#FF8000;" edge="1" parent="1" source="DIi2TAScKpZwayUGl67N-294" target="DIi2TAScKpZwayUGl67N-207">
          <mxGeometry relative="1" as="geometry">
            <Array as="points">
              <mxPoint x="460" y="930" />
              <mxPoint x="520" y="930" />
            </Array>
          </mxGeometry>
        </mxCell>
        <mxCell id="DIi2TAScKpZwayUGl67N-329" value="" style="endArrow=async;html=1;rounded=0;strokeColor=#CC00CC;dashed=1;endFill=0;startSize=1;endSize=2;strokeWidth=1;" edge="1" parent="1">
          <mxGeometry width="50" height="50" relative="1" as="geometry">
            <mxPoint x="440" y="290" as="sourcePoint" />
            <mxPoint x="280" y="290" as="targetPoint" />
          </mxGeometry>
        </mxCell>
        <mxCell id="DIi2TAScKpZwayUGl67N-330" value="" style="endArrow=async;html=1;rounded=0;strokeColor=#0000CC;dashed=1;endFill=0;startSize=1;endSize=2;strokeWidth=1;" edge="1" parent="1">
          <mxGeometry width="50" height="50" relative="1" as="geometry">
            <mxPoint x="440" y="300" as="sourcePoint" />
            <mxPoint x="120" y="300" as="targetPoint" />
          </mxGeometry>
        </mxCell>
        <mxCell id="DIi2TAScKpZwayUGl67N-333" value="" style="endArrow=async;html=1;rounded=0;strokeColor=#CC00CC;dashed=1;endFill=0;startSize=1;endSize=2;strokeWidth=1;" edge="1" parent="1">
          <mxGeometry width="50" height="50" relative="1" as="geometry">
            <mxPoint x="600" y="310" as="sourcePoint" />
            <mxPoint x="440" y="310" as="targetPoint" />
          </mxGeometry>
        </mxCell>
        <mxCell id="DIi2TAScKpZwayUGl67N-334" value="" style="endArrow=async;html=1;rounded=0;strokeColor=#0000CC;dashed=1;endFill=0;startSize=1;endSize=2;strokeWidth=1;" edge="1" parent="1">
          <mxGeometry width="50" height="50" relative="1" as="geometry">
            <mxPoint x="600" y="320" as="sourcePoint" />
            <mxPoint x="280" y="320" as="targetPoint" />
          </mxGeometry>
        </mxCell>
        <mxCell id="DIi2TAScKpZwayUGl67N-350" value="" style="endArrow=async;html=1;rounded=0;strokeColor=#CC00CC;dashed=1;dashPattern=1 1;endFill=0;startSize=1;endSize=2;strokeWidth=1;" edge="1" parent="1">
          <mxGeometry width="50" height="50" relative="1" as="geometry">
            <mxPoint x="360" y="520" as="sourcePoint" />
            <mxPoint x="200" y="520" as="targetPoint" />
          </mxGeometry>
        </mxCell>
        <mxCell id="DIi2TAScKpZwayUGl67N-363" value="" style="endArrow=async;html=1;rounded=0;strokeColor=#CC00CC;dashed=1;endFill=0;startSize=1;endSize=2;strokeWidth=1;" edge="1" parent="1">
          <mxGeometry width="50" height="50" relative="1" as="geometry">
            <mxPoint x="280" y="750" as="sourcePoint" />
            <mxPoint x="260" y="750" as="targetPoint" />
          </mxGeometry>
        </mxCell>
        <mxCell id="DIi2TAScKpZwayUGl67N-364" value="" style="endArrow=async;html=1;rounded=0;strokeColor=#0000CC;dashed=1;endFill=0;startSize=1;endSize=2;strokeWidth=1;" edge="1" parent="1">
          <mxGeometry width="50" height="50" relative="1" as="geometry">
            <mxPoint x="280" y="760" as="sourcePoint" />
            <mxPoint x="120" y="760.29" as="targetPoint" />
          </mxGeometry>
        </mxCell>
        <mxCell id="DIi2TAScKpZwayUGl67N-367" value="" style="endArrow=async;html=1;rounded=0;strokeColor=#CC00CC;dashed=1;endFill=0;startSize=1;endSize=2;strokeWidth=1;" edge="1" parent="1">
          <mxGeometry width="50" height="50" relative="1" as="geometry">
            <mxPoint x="360" y="770" as="sourcePoint" />
            <mxPoint x="340" y="770" as="targetPoint" />
          </mxGeometry>
        </mxCell>
        <mxCell id="DIi2TAScKpZwayUGl67N-368" value="" style="endArrow=async;html=1;rounded=0;strokeColor=#0000CC;dashed=1;endFill=0;startSize=1;endSize=2;strokeWidth=1;" edge="1" parent="1">
          <mxGeometry width="50" height="50" relative="1" as="geometry">
            <mxPoint x="360" y="780" as="sourcePoint" />
            <mxPoint x="200" y="780.29" as="targetPoint" />
          </mxGeometry>
        </mxCell>
        <mxCell id="DIi2TAScKpZwayUGl67N-371" value="" style="endArrow=async;html=1;rounded=0;strokeColor=#0000CC;dashed=1;dashPattern=1 1;endFill=0;startSize=1;endSize=2;strokeWidth=1;" edge="1" parent="1">
          <mxGeometry width="50" height="50" relative="1" as="geometry">
            <mxPoint x="360" y="530" as="sourcePoint" />
            <mxPoint x="120" y="530" as="targetPoint" />
          </mxGeometry>
        </mxCell>
        <mxCell id="DIi2TAScKpZwayUGl67N-372" value="" style="endArrow=async;html=1;rounded=0;strokeColor=#CC00CC;dashed=1;dashPattern=1 1;endFill=0;startSize=1;endSize=2;strokeWidth=1;" edge="1" parent="1">
          <mxGeometry width="50" height="50" relative="1" as="geometry">
            <mxPoint x="440" y="540" as="sourcePoint" />
            <mxPoint x="360" y="540" as="targetPoint" />
          </mxGeometry>
        </mxCell>
        <mxCell id="DIi2TAScKpZwayUGl67N-373" value="" style="endArrow=async;html=1;rounded=0;strokeColor=#0000CC;dashed=1;dashPattern=1 1;endFill=0;startSize=1;endSize=2;strokeWidth=1;" edge="1" parent="1">
          <mxGeometry width="50" height="50" relative="1" as="geometry">
            <mxPoint x="440" y="550" as="sourcePoint" />
            <mxPoint x="120" y="550" as="targetPoint" />
          </mxGeometry>
        </mxCell>
        <mxCell id="DIi2TAScKpZwayUGl67N-374" value="" style="endArrow=async;html=1;rounded=0;strokeColor=#CC00CC;dashed=1;endFill=0;startSize=1;endSize=2;strokeWidth=1;" edge="1" parent="1">
          <mxGeometry width="50" height="50" relative="1" as="geometry">
            <mxPoint x="520" y="560" as="sourcePoint" />
            <mxPoint x="440" y="560" as="targetPoint" />
          </mxGeometry>
        </mxCell>
        <mxCell id="DIi2TAScKpZwayUGl67N-375" value="" style="endArrow=async;html=1;rounded=0;strokeColor=#0000CC;dashed=1;endFill=0;startSize=1;endSize=2;strokeWidth=1;" edge="1" parent="1">
          <mxGeometry width="50" height="50" relative="1" as="geometry">
            <mxPoint x="520" y="570" as="sourcePoint" />
            <mxPoint x="280" y="570" as="targetPoint" />
          </mxGeometry>
        </mxCell>
        <mxCell id="DIi2TAScKpZwayUGl67N-376" value="" style="endArrow=async;html=1;rounded=0;strokeColor=#CC00CC;dashed=1;endFill=0;startSize=1;endSize=2;strokeWidth=1;" edge="1" parent="1">
          <mxGeometry width="50" height="50" relative="1" as="geometry">
            <mxPoint x="680" y="580" as="sourcePoint" />
            <mxPoint x="600" y="580" as="targetPoint" />
          </mxGeometry>
        </mxCell>
        <mxCell id="DIi2TAScKpZwayUGl67N-377" value="" style="endArrow=async;html=1;rounded=0;strokeColor=#0000CC;dashed=1;endFill=0;startSize=1;endSize=2;strokeWidth=1;" edge="1" parent="1">
          <mxGeometry width="50" height="50" relative="1" as="geometry">
            <mxPoint x="680" y="590" as="sourcePoint" />
            <mxPoint x="440" y="590" as="targetPoint" />
          </mxGeometry>
        </mxCell>
        <mxCell id="DIi2TAScKpZwayUGl67N-379" value="" style="endArrow=async;html=1;rounded=0;strokeColor=#CC00CC;dashed=1;endFill=0;startSize=1;endSize=2;strokeWidth=1;" edge="1" parent="1">
          <mxGeometry width="50" height="50" relative="1" as="geometry">
            <mxPoint x="760" y="520" as="sourcePoint" />
            <mxPoint x="680" y="520" as="targetPoint" />
          </mxGeometry>
        </mxCell>
        <mxCell id="DIi2TAScKpZwayUGl67N-380" value="" style="endArrow=async;html=1;rounded=0;strokeColor=#0000CC;dashed=1;endFill=0;startSize=1;endSize=2;strokeWidth=1;" edge="1" parent="1">
          <mxGeometry width="50" height="50" relative="1" as="geometry">
            <mxPoint x="760" y="530" as="sourcePoint" />
            <mxPoint x="520" y="530" as="targetPoint" />
          </mxGeometry>
        </mxCell>
        <mxCell id="DIi2TAScKpZwayUGl67N-381" value="" style="rounded=0;whiteSpace=wrap;html=1;fillColor=#d5e8d4;strokeColor=#82b366;" vertex="1" parent="1">
          <mxGeometry x="440" y="220" width="160" height="20" as="geometry" />
        </mxCell>
        <mxCell id="DIi2TAScKpZwayUGl67N-384" style="edgeStyle=orthogonalEdgeStyle;rounded=0;orthogonalLoop=1;jettySize=auto;html=1;exitX=1;exitY=1;exitDx=0;exitDy=0;entryX=0.5;entryY=0;entryDx=0;entryDy=0;strokeColor=#00CCCC;" edge="1" parent="1" source="DIi2TAScKpZwayUGl67N-382">
          <mxGeometry relative="1" as="geometry">
            <mxPoint x="760" y="360" as="targetPoint" />
          </mxGeometry>
        </mxCell>
        <mxCell id="DIi2TAScKpZwayUGl67N-382" value="" style="rounded=0;whiteSpace=wrap;html=1;fillColor=#f8cecc;strokeColor=#b85450;" vertex="1" parent="1">
          <mxGeometry x="600" y="260" width="160" height="20" as="geometry" />
        </mxCell>
        <mxCell id="DIi2TAScKpZwayUGl67N-385" value="" style="endArrow=async;html=1;rounded=0;strokeColor=#CC00CC;dashed=1;endFill=0;startSize=1;endSize=2;strokeWidth=1;" edge="1" parent="1">
          <mxGeometry width="50" height="50" relative="1" as="geometry">
            <mxPoint x="760" y="330" as="sourcePoint" />
            <mxPoint x="600" y="330" as="targetPoint" />
          </mxGeometry>
        </mxCell>
        <mxCell id="DIi2TAScKpZwayUGl67N-388" value="" style="endArrow=async;html=1;rounded=0;strokeColor=#0000CC;dashed=1;endFill=0;startSize=1;endSize=2;strokeWidth=1;" edge="1" parent="1">
          <mxGeometry width="50" height="50" relative="1" as="geometry">
            <mxPoint x="760" y="340" as="sourcePoint" />
            <mxPoint x="440" y="340" as="targetPoint" />
          </mxGeometry>
        </mxCell>
        <mxCell id="DIi2TAScKpZwayUGl67N-397" value="" style="endArrow=async;html=1;rounded=0;strokeColor=#CC00CC;dashed=1;endFill=0;startSize=1;endSize=2;strokeWidth=1;" edge="1" parent="1">
          <mxGeometry width="50" height="50" relative="1" as="geometry">
            <mxPoint x="440" y="790" as="sourcePoint" />
            <mxPoint x="420" y="790" as="targetPoint" />
          </mxGeometry>
        </mxCell>
        <mxCell id="DIi2TAScKpZwayUGl67N-398" value="" style="endArrow=async;html=1;rounded=0;strokeColor=#0000CC;dashed=1;endFill=0;startSize=1;endSize=2;strokeWidth=1;" edge="1" parent="1">
          <mxGeometry width="50" height="50" relative="1" as="geometry">
            <mxPoint x="440" y="800" as="sourcePoint" />
            <mxPoint x="280" y="800.29" as="targetPoint" />
          </mxGeometry>
        </mxCell>
        <mxCell id="DIi2TAScKpZwayUGl67N-399" value="" style="endArrow=async;html=1;rounded=0;strokeColor=#CC00CC;dashed=1;endFill=0;startSize=1;endSize=2;strokeWidth=1;" edge="1" parent="1">
          <mxGeometry width="50" height="50" relative="1" as="geometry">
            <mxPoint x="520" y="750" as="sourcePoint" />
            <mxPoint x="500" y="750" as="targetPoint" />
          </mxGeometry>
        </mxCell>
        <mxCell id="DIi2TAScKpZwayUGl67N-400" value="" style="endArrow=async;html=1;rounded=0;strokeColor=#0000CC;dashed=1;endFill=0;startSize=1;endSize=2;strokeWidth=1;" edge="1" parent="1">
          <mxGeometry width="50" height="50" relative="1" as="geometry">
            <mxPoint x="520" y="760" as="sourcePoint" />
            <mxPoint x="360" y="760.29" as="targetPoint" />
          </mxGeometry>
        </mxCell>
        <mxCell id="DIi2TAScKpZwayUGl67N-401" value="" style="endArrow=async;html=1;rounded=0;strokeColor=#CC00CC;dashed=1;endFill=0;startSize=1;endSize=2;strokeWidth=1;" edge="1" parent="1">
          <mxGeometry width="50" height="50" relative="1" as="geometry">
            <mxPoint x="600" y="770" as="sourcePoint" />
            <mxPoint x="580" y="770" as="targetPoint" />
          </mxGeometry>
        </mxCell>
        <mxCell id="DIi2TAScKpZwayUGl67N-402" value="" style="endArrow=async;html=1;rounded=0;strokeColor=#0000CC;dashed=1;endFill=0;startSize=1;endSize=2;strokeWidth=1;" edge="1" parent="1">
          <mxGeometry width="50" height="50" relative="1" as="geometry">
            <mxPoint x="600" y="780" as="sourcePoint" />
            <mxPoint x="440" y="780.29" as="targetPoint" />
          </mxGeometry>
        </mxCell>
        <mxCell id="DIi2TAScKpZwayUGl67N-403" value="" style="endArrow=async;html=1;rounded=0;strokeColor=#CC00CC;dashed=1;endFill=0;startSize=1;endSize=2;strokeWidth=1;" edge="1" parent="1">
          <mxGeometry width="50" height="50" relative="1" as="geometry">
            <mxPoint x="680" y="790" as="sourcePoint" />
            <mxPoint x="660" y="790" as="targetPoint" />
          </mxGeometry>
        </mxCell>
        <mxCell id="DIi2TAScKpZwayUGl67N-404" value="" style="endArrow=async;html=1;rounded=0;strokeColor=#0000CC;dashed=1;endFill=0;startSize=1;endSize=2;strokeWidth=1;" edge="1" parent="1">
          <mxGeometry width="50" height="50" relative="1" as="geometry">
            <mxPoint x="680" y="800" as="sourcePoint" />
            <mxPoint x="520" y="800.29" as="targetPoint" />
          </mxGeometry>
        </mxCell>
        <mxCell id="DIi2TAScKpZwayUGl67N-418" value="" style="endArrow=async;html=1;rounded=0;strokeColor=#CC00CC;dashed=1;dashPattern=1 1;endFill=0;startSize=1;endSize=2;strokeWidth=1;" edge="1" parent="1">
          <mxGeometry width="50" height="50" relative="1" as="geometry">
            <mxPoint x="280" y="970" as="sourcePoint" />
            <mxPoint x="260" y="970" as="targetPoint" />
          </mxGeometry>
        </mxCell>
        <mxCell id="DIi2TAScKpZwayUGl67N-419" value="" style="endArrow=async;html=1;rounded=0;strokeColor=#0000CC;dashed=1;dashPattern=1 1;endFill=0;startSize=1;endSize=2;strokeWidth=1;" edge="1" parent="1">
          <mxGeometry width="50" height="50" relative="1" as="geometry">
            <mxPoint x="280" y="980" as="sourcePoint" />
            <mxPoint x="120" y="980.29" as="targetPoint" />
          </mxGeometry>
        </mxCell>
        <mxCell id="DIi2TAScKpZwayUGl67N-420" value="" style="endArrow=async;html=1;rounded=0;strokeColor=#CC00CC;dashed=1;dashPattern=1 1;endFill=0;startSize=1;endSize=2;strokeWidth=1;" edge="1" parent="1">
          <mxGeometry width="50" height="50" relative="1" as="geometry">
            <mxPoint x="360" y="990" as="sourcePoint" />
            <mxPoint x="340" y="990" as="targetPoint" />
          </mxGeometry>
        </mxCell>
        <mxCell id="DIi2TAScKpZwayUGl67N-421" value="" style="endArrow=async;html=1;rounded=0;strokeColor=#0000CC;dashed=1;dashPattern=1 1;endFill=0;startSize=1;endSize=2;strokeWidth=1;" edge="1" parent="1">
          <mxGeometry width="50" height="50" relative="1" as="geometry">
            <mxPoint x="360" y="1000" as="sourcePoint" />
            <mxPoint x="120" y="1000" as="targetPoint" />
          </mxGeometry>
        </mxCell>
        <mxCell id="DIi2TAScKpZwayUGl67N-422" value="" style="endArrow=async;html=1;rounded=0;strokeColor=#CC00CC;dashed=1;endFill=0;startSize=1;endSize=2;strokeWidth=1;" edge="1" parent="1">
          <mxGeometry width="50" height="50" relative="1" as="geometry">
            <mxPoint x="440" y="1010" as="sourcePoint" />
            <mxPoint x="420" y="1010" as="targetPoint" />
          </mxGeometry>
        </mxCell>
        <mxCell id="DIi2TAScKpZwayUGl67N-423" value="" style="endArrow=async;html=1;rounded=0;strokeColor=#0000CC;dashed=1;endFill=0;startSize=1;endSize=2;strokeWidth=1;" edge="1" parent="1">
          <mxGeometry width="50" height="50" relative="1" as="geometry">
            <mxPoint x="440" y="1020" as="sourcePoint" />
            <mxPoint x="260" y="1020" as="targetPoint" />
          </mxGeometry>
        </mxCell>
        <mxCell id="DIi2TAScKpZwayUGl67N-424" value="" style="endArrow=async;html=1;rounded=0;strokeColor=#CC00CC;dashed=1;endFill=0;startSize=1;endSize=2;strokeWidth=1;" edge="1" parent="1">
          <mxGeometry width="50" height="50" relative="1" as="geometry">
            <mxPoint x="520" y="970" as="sourcePoint" />
            <mxPoint x="500" y="970" as="targetPoint" />
          </mxGeometry>
        </mxCell>
        <mxCell id="DIi2TAScKpZwayUGl67N-425" value="" style="endArrow=async;html=1;rounded=0;strokeColor=#0000CC;dashed=1;endFill=0;startSize=1;endSize=2;strokeWidth=1;" edge="1" parent="1">
          <mxGeometry width="50" height="50" relative="1" as="geometry">
            <mxPoint x="520" y="980" as="sourcePoint" />
            <mxPoint x="340" y="980" as="targetPoint" />
          </mxGeometry>
        </mxCell>
        <mxCell id="DIi2TAScKpZwayUGl67N-426" value="" style="endArrow=async;html=1;rounded=0;strokeColor=#CC00CC;dashed=1;endFill=0;startSize=1;endSize=2;strokeWidth=1;" edge="1" parent="1">
          <mxGeometry width="50" height="50" relative="1" as="geometry">
            <mxPoint x="600" y="990" as="sourcePoint" />
            <mxPoint x="580" y="990" as="targetPoint" />
          </mxGeometry>
        </mxCell>
        <mxCell id="DIi2TAScKpZwayUGl67N-427" value="" style="endArrow=async;html=1;rounded=0;strokeColor=#0000CC;dashed=1;endFill=0;startSize=1;endSize=2;strokeWidth=1;" edge="1" parent="1">
          <mxGeometry width="50" height="50" relative="1" as="geometry">
            <mxPoint x="600" y="1000" as="sourcePoint" />
            <mxPoint x="420" y="1000" as="targetPoint" />
          </mxGeometry>
        </mxCell>
        <mxCell id="DIi2TAScKpZwayUGl67N-428" value="" style="endArrow=async;html=1;rounded=0;strokeColor=#CC00CC;dashed=1;endFill=0;startSize=1;endSize=2;strokeWidth=1;" edge="1" parent="1">
          <mxGeometry width="50" height="50" relative="1" as="geometry">
            <mxPoint x="680" y="1010" as="sourcePoint" />
            <mxPoint x="660" y="1010" as="targetPoint" />
          </mxGeometry>
        </mxCell>
        <mxCell id="DIi2TAScKpZwayUGl67N-429" value="" style="endArrow=async;html=1;rounded=0;strokeColor=#0000CC;dashed=1;endFill=0;startSize=1;endSize=2;strokeWidth=1;" edge="1" parent="1">
          <mxGeometry width="50" height="50" relative="1" as="geometry">
            <mxPoint x="680" y="1020" as="sourcePoint" />
            <mxPoint x="500" y="1020" as="targetPoint" />
          </mxGeometry>
        </mxCell>
        <mxCell id="DIi2TAScKpZwayUGl67N-430" style="edgeStyle=orthogonalEdgeStyle;rounded=0;orthogonalLoop=1;jettySize=auto;html=1;entryX=1;entryY=0;entryDx=0;entryDy=0;strokeColor=#000000;" edge="1" parent="1">
          <mxGeometry relative="1" as="geometry">
            <mxPoint x="520" y="240" as="sourcePoint" />
            <mxPoint x="600" y="260" as="targetPoint" />
            <Array as="points">
              <mxPoint x="520" y="250" />
              <mxPoint x="600" y="250" />
            </Array>
          </mxGeometry>
        </mxCell>
        <mxCell id="DIi2TAScKpZwayUGl67N-431" value="" style="rounded=0;whiteSpace=wrap;html=1;fillColor=#f8cecc;strokeColor=#b85450;" vertex="1" parent="1">
          <mxGeometry x="680" y="720" width="80" height="20" as="geometry" />
        </mxCell>
        <mxCell id="DIi2TAScKpZwayUGl67N-432" value="" style="rounded=0;whiteSpace=wrap;html=1;fillColor=#d5e8d4;strokeColor=#82b366;" vertex="1" parent="1">
          <mxGeometry x="600" y="640" width="80" height="20" as="geometry" />
        </mxCell>
        <mxCell id="DIi2TAScKpZwayUGl67N-433" value="" style="rounded=0;whiteSpace=wrap;html=1;fillColor=#d5e8d4;strokeColor=#82b366;fontSize=5;" vertex="1" parent="1">
          <mxGeometry x="680" y="680" width="20" height="20" as="geometry" />
        </mxCell>
        <mxCell id="DIi2TAScKpZwayUGl67N-434" value="" style="rounded=0;whiteSpace=wrap;html=1;fillColor=#d5e8d4;strokeColor=#82b366;fontSize=5;" vertex="1" parent="1">
          <mxGeometry x="700" y="680" width="20" height="20" as="geometry" />
        </mxCell>
        <mxCell id="DIi2TAScKpZwayUGl67N-435" value="" style="rounded=0;whiteSpace=wrap;html=1;fillColor=#d5e8d4;strokeColor=#82b366;fontSize=5;" vertex="1" parent="1">
          <mxGeometry x="720" y="680" width="20" height="20" as="geometry" />
        </mxCell>
        <mxCell id="DIi2TAScKpZwayUGl67N-436" style="edgeStyle=orthogonalEdgeStyle;rounded=0;orthogonalLoop=1;jettySize=auto;html=1;entryX=0.25;entryY=0;entryDx=0;entryDy=0;strokeColor=#333333;" edge="1" parent="1">
          <mxGeometry relative="1" as="geometry">
            <mxPoint x="690" y="700" as="sourcePoint" />
            <mxPoint x="700" y="720" as="targetPoint" />
            <Array as="points">
              <mxPoint x="690" y="710" />
              <mxPoint x="700" y="710" />
            </Array>
          </mxGeometry>
        </mxCell>
        <mxCell id="DIi2TAScKpZwayUGl67N-437" style="edgeStyle=orthogonalEdgeStyle;rounded=0;orthogonalLoop=1;jettySize=auto;html=1;entryX=0.5;entryY=0;entryDx=0;entryDy=0;strokeColor=#808080;" edge="1" parent="1">
          <mxGeometry relative="1" as="geometry">
            <mxPoint x="710" y="700" as="sourcePoint" />
            <mxPoint x="720" y="720" as="targetPoint" />
            <Array as="points">
              <mxPoint x="710" y="710" />
              <mxPoint x="720" y="710" />
            </Array>
          </mxGeometry>
        </mxCell>
        <mxCell id="DIi2TAScKpZwayUGl67N-438" style="edgeStyle=orthogonalEdgeStyle;rounded=0;orthogonalLoop=1;jettySize=auto;html=1;entryX=0.75;entryY=0;entryDx=0;entryDy=0;strokeColor=#CCCCCC;" edge="1" parent="1">
          <mxGeometry relative="1" as="geometry">
            <mxPoint x="730" y="700" as="sourcePoint" />
            <mxPoint x="740" y="720" as="targetPoint" />
            <Array as="points">
              <mxPoint x="730" y="710" />
              <mxPoint x="740" y="710" />
            </Array>
          </mxGeometry>
        </mxCell>
        <mxCell id="DIi2TAScKpZwayUGl67N-439" style="edgeStyle=orthogonalEdgeStyle;rounded=0;orthogonalLoop=1;jettySize=auto;html=1;entryX=0;entryY=0;entryDx=0;entryDy=0;strokeColor=#000000;" edge="1" parent="1">
          <mxGeometry relative="1" as="geometry">
            <mxPoint x="640" y="660" as="sourcePoint" />
            <mxPoint x="680" y="720" as="targetPoint" />
            <Array as="points">
              <mxPoint x="640" y="670" />
              <mxPoint x="680" y="670" />
            </Array>
          </mxGeometry>
        </mxCell>
        <mxCell id="DIi2TAScKpZwayUGl67N-440" style="edgeStyle=orthogonalEdgeStyle;rounded=0;orthogonalLoop=1;jettySize=auto;html=1;exitX=1;exitY=1;exitDx=0;exitDy=0;entryX=0.5;entryY=0;entryDx=0;entryDy=0;strokeColor=#00CCCC;" edge="1" parent="1">
          <mxGeometry relative="1" as="geometry">
            <mxPoint x="760" y="740" as="sourcePoint" />
            <mxPoint x="760" y="820" as="targetPoint" />
          </mxGeometry>
        </mxCell>
        <mxCell id="DIi2TAScKpZwayUGl67N-441" value="" style="endArrow=async;html=1;rounded=0;strokeColor=#CC00CC;dashed=1;endFill=0;startSize=1;endSize=2;strokeWidth=1;" edge="1" parent="1">
          <mxGeometry width="50" height="50" relative="1" as="geometry">
            <mxPoint x="760" y="750" as="sourcePoint" />
            <mxPoint x="740" y="750" as="targetPoint" />
          </mxGeometry>
        </mxCell>
        <mxCell id="DIi2TAScKpZwayUGl67N-442" value="" style="endArrow=async;html=1;rounded=0;strokeColor=#0000CC;dashed=1;endFill=0;startSize=1;endSize=2;strokeWidth=1;" edge="1" parent="1">
          <mxGeometry width="50" height="50" relative="1" as="geometry">
            <mxPoint x="760" y="760" as="sourcePoint" />
            <mxPoint x="600" y="760.29" as="targetPoint" />
          </mxGeometry>
        </mxCell>
        <mxCell id="DIi2TAScKpZwayUGl67N-443" value="" style="rounded=0;whiteSpace=wrap;html=1;fillColor=#f8cecc;strokeColor=#b85450;" vertex="1" parent="1">
          <mxGeometry x="680" y="890" width="80" height="20" as="geometry" />
        </mxCell>
        <mxCell id="DIi2TAScKpZwayUGl67N-444" style="edgeStyle=orthogonalEdgeStyle;rounded=0;orthogonalLoop=1;jettySize=auto;html=1;entryX=0.25;entryY=0;entryDx=0;entryDy=0;strokeColor=#333333;" edge="1" parent="1" source="DIi2TAScKpZwayUGl67N-445" target="DIi2TAScKpZwayUGl67N-443">
          <mxGeometry relative="1" as="geometry">
            <Array as="points">
              <mxPoint x="690" y="880" />
              <mxPoint x="700" y="880" />
            </Array>
          </mxGeometry>
        </mxCell>
        <mxCell id="DIi2TAScKpZwayUGl67N-445" value="" style="rounded=0;whiteSpace=wrap;html=1;fillColor=#d5e8d4;strokeColor=#82b366;fontSize=5;" vertex="1" parent="1">
          <mxGeometry x="680" y="850" width="20" height="20" as="geometry" />
        </mxCell>
        <mxCell id="DIi2TAScKpZwayUGl67N-446" style="edgeStyle=orthogonalEdgeStyle;rounded=0;orthogonalLoop=1;jettySize=auto;html=1;entryX=0.5;entryY=0;entryDx=0;entryDy=0;strokeColor=#808080;" edge="1" parent="1" source="DIi2TAScKpZwayUGl67N-447" target="DIi2TAScKpZwayUGl67N-443">
          <mxGeometry relative="1" as="geometry">
            <Array as="points">
              <mxPoint x="710" y="880" />
              <mxPoint x="720" y="880" />
            </Array>
          </mxGeometry>
        </mxCell>
        <mxCell id="DIi2TAScKpZwayUGl67N-447" value="" style="rounded=0;whiteSpace=wrap;html=1;fillColor=#d5e8d4;strokeColor=#82b366;fontSize=5;" vertex="1" parent="1">
          <mxGeometry x="700" y="850" width="20" height="20" as="geometry" />
        </mxCell>
        <mxCell id="DIi2TAScKpZwayUGl67N-448" style="edgeStyle=orthogonalEdgeStyle;rounded=0;orthogonalLoop=1;jettySize=auto;html=1;entryX=0.75;entryY=0;entryDx=0;entryDy=0;strokeColor=#CCCCCC;" edge="1" parent="1" source="DIi2TAScKpZwayUGl67N-449" target="DIi2TAScKpZwayUGl67N-443">
          <mxGeometry relative="1" as="geometry">
            <Array as="points">
              <mxPoint x="730" y="880" />
              <mxPoint x="740" y="880" />
            </Array>
          </mxGeometry>
        </mxCell>
        <mxCell id="DIi2TAScKpZwayUGl67N-449" value="" style="rounded=0;whiteSpace=wrap;html=1;fillColor=#d5e8d4;strokeColor=#82b366;fontSize=5;" vertex="1" parent="1">
          <mxGeometry x="720" y="850" width="20" height="20" as="geometry" />
        </mxCell>
        <mxCell id="DIi2TAScKpZwayUGl67N-450" style="edgeStyle=orthogonalEdgeStyle;rounded=0;orthogonalLoop=1;jettySize=auto;html=1;entryX=0;entryY=0;entryDx=0;entryDy=0;" edge="1" parent="1" source="DIi2TAScKpZwayUGl67N-451" target="DIi2TAScKpZwayUGl67N-443">
          <mxGeometry relative="1" as="geometry">
            <Array as="points">
              <mxPoint x="670" y="880" />
              <mxPoint x="680" y="880" />
            </Array>
          </mxGeometry>
        </mxCell>
        <mxCell id="DIi2TAScKpZwayUGl67N-451" value="" style="rounded=0;whiteSpace=wrap;html=1;fillColor=#d5e8d4;strokeColor=#82b366;fontSize=5;" vertex="1" parent="1">
          <mxGeometry x="660" y="850" width="20" height="20" as="geometry" />
        </mxCell>
        <mxCell id="DIi2TAScKpZwayUGl67N-452" style="edgeStyle=orthogonalEdgeStyle;rounded=0;orthogonalLoop=1;jettySize=auto;html=1;exitX=1;exitY=1;exitDx=0;exitDy=0;entryX=0.5;entryY=0;entryDx=0;entryDy=0;strokeColor=#00CCCC;" edge="1" parent="1">
          <mxGeometry relative="1" as="geometry">
            <mxPoint x="760" y="910" as="sourcePoint" />
            <mxPoint x="760" y="1050" as="targetPoint" />
          </mxGeometry>
        </mxCell>
        <mxCell id="DIi2TAScKpZwayUGl67N-454" value="" style="endArrow=async;html=1;rounded=0;strokeColor=#CC00CC;dashed=1;endFill=0;startSize=1;endSize=2;strokeWidth=1;" edge="1" parent="1">
          <mxGeometry width="50" height="50" relative="1" as="geometry">
            <mxPoint x="760" y="970" as="sourcePoint" />
            <mxPoint x="740" y="970" as="targetPoint" />
          </mxGeometry>
        </mxCell>
        <mxCell id="DIi2TAScKpZwayUGl67N-455" value="" style="endArrow=async;html=1;rounded=0;strokeColor=#0000CC;dashed=1;endFill=0;startSize=1;endSize=2;strokeWidth=1;" edge="1" parent="1">
          <mxGeometry width="50" height="50" relative="1" as="geometry">
            <mxPoint x="760" y="980" as="sourcePoint" />
            <mxPoint x="580" y="980" as="targetPoint" />
          </mxGeometry>
        </mxCell>
        <mxCell id="DIi2TAScKpZwayUGl67N-456" value="" style="rounded=0;whiteSpace=wrap;html=1;fillColor=#ffe6cc;strokeColor=#d79b00;" vertex="1" parent="1">
          <mxGeometry x="580" y="940" width="80" height="20" as="geometry" />
        </mxCell>
        <mxCell id="DIi2TAScKpZwayUGl67N-457" style="edgeStyle=orthogonalEdgeStyle;rounded=0;orthogonalLoop=1;jettySize=auto;html=1;exitX=0.5;exitY=0;exitDx=0;exitDy=0;entryX=0;entryY=1;entryDx=0;entryDy=0;strokeColor=#FF8000;" edge="1" parent="1">
          <mxGeometry relative="1" as="geometry">
            <mxPoint x="620" y="940" as="sourcePoint" />
            <mxPoint x="680" y="910" as="targetPoint" />
            <Array as="points">
              <mxPoint x="620" y="930" />
              <mxPoint x="680" y="930" />
            </Array>
          </mxGeometry>
        </mxCell>
        <mxCell id="DIi2TAScKpZwayUGl67N-460" value="" style="rounded=1;whiteSpace=wrap;html=1;movable=0;resizable=0;rotatable=0;deletable=0;editable=0;locked=1;connectable=0;fillColor=default;" vertex="1" parent="1">
          <mxGeometry x="15" y="20" width="815" height="150" as="geometry" />
        </mxCell>
        <mxCell id="DIi2TAScKpZwayUGl67N-461" value="Legend" style="text;html=1;align=center;verticalAlign=middle;whiteSpace=wrap;rounded=0;fontStyle=1" vertex="1" parent="1">
          <mxGeometry x="40" y="29.200000000000003" width="60" height="20.4" as="geometry" />
        </mxCell>
        <mxCell id="DIi2TAScKpZwayUGl67N-462" value="" style="endArrow=async;html=1;rounded=0;strokeColor=#CC00CC;dashed=1;endFill=0;startSize=1;endSize=2;strokeWidth=1;exitX=1;exitY=1;exitDx=0;exitDy=0;entryX=0;entryY=1;entryDx=0;entryDy=0;" edge="1" parent="1" source="DIi2TAScKpZwayUGl67N-464" target="DIi2TAScKpZwayUGl67N-464">
          <mxGeometry width="50" height="50" relative="1" as="geometry">
            <mxPoint x="100" y="129.6" as="sourcePoint" />
            <mxPoint x="40" y="129.6" as="targetPoint" />
          </mxGeometry>
        </mxCell>
        <mxCell id="DIi2TAScKpZwayUGl67N-463" value="" style="endArrow=async;html=1;rounded=0;strokeColor=#0000CC;dashed=1;endFill=0;startSize=1;endSize=2;strokeWidth=1;exitX=1;exitY=1;exitDx=0;exitDy=0;" edge="1" parent="1">
          <mxGeometry width="50" height="50" relative="1" as="geometry">
            <mxPoint x="179.9999999999999" y="149.6" as="sourcePoint" />
            <mxPoint x="40" y="149.6" as="targetPoint" />
          </mxGeometry>
        </mxCell>
        <mxCell id="DIi2TAScKpZwayUGl67N-464" value="&lt;font style=&quot;font-size: 6px;&quot;&gt;&lt;b&gt;Yunger&lt;/b&gt; event on witch the prediction is based on&lt;/font&gt;" style="text;html=1;align=center;verticalAlign=bottom;whiteSpace=wrap;rounded=0;" vertex="1" parent="1">
          <mxGeometry x="40" y="109.6" width="140" height="20" as="geometry" />
        </mxCell>
        <mxCell id="DIi2TAScKpZwayUGl67N-466" value="&lt;font style=&quot;font-size: 6px;&quot;&gt;&lt;b&gt;Older&lt;/b&gt; event on witch the prediction is based on&lt;/font&gt;" style="text;html=1;align=center;verticalAlign=bottom;whiteSpace=wrap;rounded=0;" vertex="1" parent="1">
          <mxGeometry x="40" y="129.6" width="140" height="20" as="geometry" />
        </mxCell>
        <mxCell id="DIi2TAScKpZwayUGl67N-467" style="edgeStyle=orthogonalEdgeStyle;rounded=0;orthogonalLoop=1;jettySize=auto;html=1;strokeColor=#000000;" edge="1" parent="1">
          <mxGeometry relative="1" as="geometry">
            <mxPoint x="40" y="69.6" as="sourcePoint" />
            <mxPoint x="180" y="69.6" as="targetPoint" />
            <Array as="points">
              <mxPoint x="40" y="69.6" />
              <mxPoint x="120" y="69.6" />
            </Array>
          </mxGeometry>
        </mxCell>
        <mxCell id="DIi2TAScKpZwayUGl67N-468" value="&lt;span style=&quot;font-size: 6px;&quot;&gt;&lt;b&gt;Events &lt;/b&gt;given as input to a computation&lt;/span&gt;" style="text;html=1;align=center;verticalAlign=bottom;whiteSpace=wrap;rounded=0;" vertex="1" parent="1">
          <mxGeometry x="40" y="49.6" width="140" height="20" as="geometry" />
        </mxCell>
        <mxCell id="DIi2TAScKpZwayUGl67N-469" style="edgeStyle=orthogonalEdgeStyle;rounded=0;orthogonalLoop=1;jettySize=auto;html=1;exitX=1;exitY=1;exitDx=0;exitDy=0;strokeColor=#00CCCC;" edge="1" parent="1">
          <mxGeometry relative="1" as="geometry">
            <mxPoint x="40" y="109.6" as="sourcePoint" />
            <mxPoint x="180" y="109.6" as="targetPoint" />
          </mxGeometry>
        </mxCell>
        <mxCell id="DIi2TAScKpZwayUGl67N-470" value="&lt;span style=&quot;font-size: 6px;&quot;&gt;&lt;b&gt;Prediction &lt;/b&gt;obtained as output from a computation&lt;/span&gt;" style="text;html=1;align=center;verticalAlign=bottom;whiteSpace=wrap;rounded=0;" vertex="1" parent="1">
          <mxGeometry x="40" y="89.6" width="140" height="20" as="geometry" />
        </mxCell>
        <mxCell id="DIi2TAScKpZwayUGl67N-471" style="edgeStyle=orthogonalEdgeStyle;rounded=0;orthogonalLoop=1;jettySize=auto;html=1;strokeColor=#FF8000;entryX=1;entryY=0;entryDx=0;entryDy=0;" edge="1" parent="1">
          <mxGeometry relative="1" as="geometry">
            <mxPoint x="40" y="89.6" as="sourcePoint" />
            <mxPoint x="180" y="89.6" as="targetPoint" />
            <Array as="points">
              <mxPoint x="120" y="89.6" />
              <mxPoint x="120" y="89.6" />
            </Array>
          </mxGeometry>
        </mxCell>
        <mxCell id="DIi2TAScKpZwayUGl67N-472" value="&lt;span style=&quot;font-size: 6px;&quot;&gt;&lt;b&gt;Internal State&amp;nbsp;&lt;/b&gt;given as input to a computation&lt;/span&gt;" style="text;html=1;align=center;verticalAlign=bottom;whiteSpace=wrap;rounded=0;" vertex="1" parent="1">
          <mxGeometry x="40" y="69.6" width="140" height="20" as="geometry" />
        </mxCell>
        <mxCell id="DIi2TAScKpZwayUGl67N-481" value="&lt;b&gt;TIME&lt;/b&gt;" style="text;html=1;align=center;verticalAlign=middle;whiteSpace=wrap;rounded=0;" vertex="1" parent="1">
          <mxGeometry x="80" y="170" width="760" height="30" as="geometry" />
        </mxCell>
        <mxCell id="DIi2TAScKpZwayUGl67N-475" value="" style="rounded=0;whiteSpace=wrap;html=1;fillColor=#ffe6cc;strokeColor=#d79b00;" vertex="1" parent="1">
          <mxGeometry x="379.99999999999994" y="80" width="210" height="20" as="geometry" />
        </mxCell>
        <mxCell id="DIi2TAScKpZwayUGl67N-485" style="edgeStyle=orthogonalEdgeStyle;rounded=0;orthogonalLoop=1;jettySize=auto;html=1;exitX=0;exitY=1;exitDx=0;exitDy=0;entryX=0;entryY=0;entryDx=0;entryDy=0;strokeColor=#9AAFB3;endArrow=none;endFill=0;startArrow=none;startFill=0;dashed=1;dashPattern=1 1;" edge="1" parent="1" source="DIi2TAScKpZwayUGl67N-476" target="DIi2TAScKpZwayUGl67N-475">
          <mxGeometry relative="1" as="geometry" />
        </mxCell>
        <mxCell id="DIi2TAScKpZwayUGl67N-486" style="edgeStyle=orthogonalEdgeStyle;rounded=0;orthogonalLoop=1;jettySize=auto;html=1;exitX=1;exitY=1;exitDx=0;exitDy=0;entryX=1;entryY=0;entryDx=0;entryDy=0;strokeColor=#9AAFB3;endArrow=none;endFill=0;startArrow=none;startFill=0;dashed=1;dashPattern=1 1;" edge="1" parent="1" source="DIi2TAScKpZwayUGl67N-476" target="DIi2TAScKpZwayUGl67N-475">
          <mxGeometry relative="1" as="geometry" />
        </mxCell>
        <mxCell id="DIi2TAScKpZwayUGl67N-476" value="" style="rounded=0;whiteSpace=wrap;html=1;fillColor=#d5e8d4;strokeColor=#82b366;" vertex="1" parent="1">
          <mxGeometry x="379.99999999999994" y="40" width="210" height="20" as="geometry" />
        </mxCell>
        <mxCell id="DIi2TAScKpZwayUGl67N-478" value="&lt;font style=&quot;font-size: 8px;&quot;&gt;The alignment of an &lt;font color=&quot;#006600&quot;&gt;Event Group&lt;/font&gt; and an &lt;font color=&quot;#cc6600&quot;&gt;Internal State&lt;/font&gt; means that the &lt;b&gt;model&lt;/b&gt; used those events&#39; information to create that internal state&lt;/font&gt;" style="text;html=1;align=center;verticalAlign=middle;whiteSpace=wrap;rounded=0;" vertex="1" parent="1">
          <mxGeometry x="379.99999999999994" y="100" width="210" height="50" as="geometry" />
        </mxCell>
        <mxCell id="DIi2TAScKpZwayUGl67N-482" value="&lt;font style=&quot;font-size: 11px;&quot;&gt;Events Group&lt;/font&gt;" style="rounded=0;whiteSpace=wrap;html=1;fillColor=#d5e8d4;strokeColor=#82b366;" vertex="1" parent="1">
          <mxGeometry x="200" y="50" width="140" height="20" as="geometry" />
        </mxCell>
        <mxCell id="DIi2TAScKpZwayUGl67N-483" value="Internal State" style="rounded=0;whiteSpace=wrap;html=1;fillColor=#ffe6cc;strokeColor=#d79b00;" vertex="1" parent="1">
          <mxGeometry x="200" y="90" width="140" height="20" as="geometry" />
        </mxCell>
        <mxCell id="DIi2TAScKpZwayUGl67N-484" value="&lt;font style=&quot;font-size: 11px;&quot;&gt;Computation&lt;/font&gt;" style="rounded=0;whiteSpace=wrap;html=1;fillColor=#f8cecc;strokeColor=#b85450;" vertex="1" parent="1">
          <mxGeometry x="200" y="130" width="140" height="20" as="geometry" />
        </mxCell>
        <mxCell id="DIi2TAScKpZwayUGl67N-487" value="" style="endArrow=none;html=1;rounded=0;exitX=0.5;exitY=1;exitDx=0;exitDy=0;entryX=0.5;entryY=0;entryDx=0;entryDy=0;strokeColor=#9AAFB3;endFill=0;startArrow=none;startFill=0;dashed=1;dashPattern=1 1;" edge="1" parent="1" source="DIi2TAScKpZwayUGl67N-476" target="DIi2TAScKpZwayUGl67N-475">
          <mxGeometry width="50" height="50" relative="1" as="geometry">
            <mxPoint x="489.99999999999994" y="140" as="sourcePoint" />
            <mxPoint x="540" y="90" as="targetPoint" />
          </mxGeometry>
        </mxCell>
        <mxCell id="DIi2TAScKpZwayUGl67N-488" style="edgeStyle=orthogonalEdgeStyle;rounded=0;orthogonalLoop=1;jettySize=auto;html=1;entryX=0;entryY=0;entryDx=0;entryDy=0;strokeColor=#000000;exitX=1;exitY=0.5;exitDx=0;exitDy=0;" edge="1" parent="1" target="DIi2TAScKpZwayUGl67N-490" source="DIi2TAScKpZwayUGl67N-495">
          <mxGeometry relative="1" as="geometry">
            <mxPoint x="660" y="55" as="sourcePoint" />
            <Array as="points">
              <mxPoint x="700" y="50" />
            </Array>
          </mxGeometry>
        </mxCell>
        <mxCell id="DIi2TAScKpZwayUGl67N-489" style="edgeStyle=orthogonalEdgeStyle;rounded=0;orthogonalLoop=1;jettySize=auto;html=1;exitX=1;exitY=1;exitDx=0;exitDy=0;strokeColor=#00CCCC;entryX=0.5;entryY=0;entryDx=0;entryDy=0;" edge="1" parent="1" source="DIi2TAScKpZwayUGl67N-490" target="DIi2TAScKpZwayUGl67N-494">
          <mxGeometry relative="1" as="geometry">
            <mxPoint x="780" y="124.6" as="targetPoint" />
          </mxGeometry>
        </mxCell>
        <mxCell id="DIi2TAScKpZwayUGl67N-490" value="" style="rounded=0;whiteSpace=wrap;html=1;fillColor=#f8cecc;strokeColor=#b85450;" vertex="1" parent="1">
          <mxGeometry x="700" y="74.6" width="80" height="20" as="geometry" />
        </mxCell>
        <mxCell id="DIi2TAScKpZwayUGl67N-491" style="edgeStyle=orthogonalEdgeStyle;rounded=0;orthogonalLoop=1;jettySize=auto;html=1;entryX=0;entryY=1;entryDx=0;entryDy=0;strokeColor=#FF8000;exitX=1;exitY=0.5;exitDx=0;exitDy=0;" edge="1" parent="1" target="DIi2TAScKpZwayUGl67N-490" source="DIi2TAScKpZwayUGl67N-493">
          <mxGeometry relative="1" as="geometry">
            <mxPoint x="660" y="135" as="sourcePoint" />
            <Array as="points">
              <mxPoint x="700" y="140" />
            </Array>
          </mxGeometry>
        </mxCell>
        <mxCell id="DIi2TAScKpZwayUGl67N-493" value="&lt;font style=&quot;font-size: 8px;&quot;&gt;Internal State Input&lt;/font&gt;" style="text;html=1;align=center;verticalAlign=middle;whiteSpace=wrap;rounded=0;" vertex="1" parent="1">
          <mxGeometry x="610" y="130" width="80" height="20" as="geometry" />
        </mxCell>
        <mxCell id="DIi2TAScKpZwayUGl67N-494" value="&lt;font style=&quot;font-size: 8px;&quot;&gt;Prediction&lt;/font&gt;" style="text;html=1;align=center;verticalAlign=middle;whiteSpace=wrap;rounded=0;" vertex="1" parent="1">
          <mxGeometry x="750" y="129.6" width="60" height="20" as="geometry" />
        </mxCell>
        <mxCell id="DIi2TAScKpZwayUGl67N-495" value="&lt;font style=&quot;font-size: 8px;&quot;&gt;Events Group Input&lt;/font&gt;" style="text;html=1;align=center;verticalAlign=middle;whiteSpace=wrap;rounded=0;" vertex="1" parent="1">
          <mxGeometry x="610" y="40" width="80" height="20" as="geometry" />
        </mxCell>
        <mxCell id="DIi2TAScKpZwayUGl67N-496" value="" style="endArrow=async;html=1;rounded=0;strokeColor=#CC00CC;dashed=1;endFill=0;startSize=1;endSize=2;strokeWidth=1;" edge="1" parent="1">
          <mxGeometry width="50" height="50" relative="1" as="geometry">
            <mxPoint x="780" y="106" as="sourcePoint" />
            <mxPoint x="670" y="106" as="targetPoint" />
          </mxGeometry>
        </mxCell>
        <mxCell id="DIi2TAScKpZwayUGl67N-497" value="" style="endArrow=async;html=1;rounded=0;strokeColor=#0000CC;dashed=1;endFill=0;startSize=1;endSize=2;strokeWidth=1;" edge="1" parent="1">
          <mxGeometry width="50" height="50" relative="1" as="geometry">
            <mxPoint x="780" y="117" as="sourcePoint" />
            <mxPoint x="650" y="117" as="targetPoint" />
          </mxGeometry>
        </mxCell>
        <mxCell id="DIi2TAScKpZwayUGl67N-498" value="&lt;font style=&quot;font-size: 6px;&quot;&gt;Older Event&lt;/font&gt;" style="text;html=1;align=center;verticalAlign=middle;whiteSpace=wrap;rounded=0;" vertex="1" parent="1">
          <mxGeometry x="610" y="109.6" width="40" height="10.4" as="geometry" />
        </mxCell>
        <mxCell id="DIi2TAScKpZwayUGl67N-499" value="&lt;font style=&quot;font-size: 6px;&quot;&gt;Yunger Event&lt;/font&gt;" style="text;html=1;align=center;verticalAlign=middle;whiteSpace=wrap;rounded=0;" vertex="1" parent="1">
          <mxGeometry x="627" y="100" width="40" height="9.6" as="geometry" />
        </mxCell>
      </root>
    </mxGraphModel>
  </diagram>
</mxfile>
